<svg width="410" height="92" viewBox="0 0 410 92" fill="none" xmlns="http://www.w3.org/2000/svg">
<path d="M7 55H405" stroke="#D7B26A" stroke-dasharray="4 4"/>
<path d="M227.799 0.56568C227.029 1.2202 226.55 2.12497 225.911 4.10778L225.431 5.60932L225.054 5.05106C224.56 4.33879 224.138 4.16553 223.644 4.49279C222.773 5.05106 222.511 6.5911 222.787 9.49793L222.918 10.7877L222.497 10.9225C222.264 10.9995 221.901 11.192 221.683 11.346C221.305 11.6347 221.276 11.6155 220.724 10.961C219.548 9.55568 218.356 9.92144 217.586 11.9042C217.368 12.4625 217.281 12.5395 216.729 12.5395C215 12.5395 214.1 14.6571 214.87 16.9094C215.262 18.0259 216.264 19.412 217.092 19.9702C217.47 20.2205 217.79 20.5285 217.79 20.6247C217.79 20.875 217.644 20.875 217.078 20.6055C216.424 20.2975 215.494 20.6825 214.724 21.5488C214.143 22.2033 214.071 22.2418 212.981 22.2418C211.993 22.261 211.819 22.3188 211.47 22.7423C211.02 23.3006 210.657 24.1476 210.526 24.9561C210.453 25.4181 210.337 25.5529 209.799 25.7646C208.39 26.3037 207.896 28.017 208.608 29.8073C208.913 30.5388 209.959 31.5783 211.02 32.1558C211.586 32.4638 212.066 32.7911 212.08 32.8873C212.109 32.9836 212.037 33.2146 211.935 33.4264C211.746 33.7536 211.673 33.7536 211.049 33.5226C210.468 33.3109 210.293 33.3301 209.741 33.5996C209.029 33.9654 208.666 34.4274 208.143 35.6402L207.78 36.4872L206.879 36.5064C206.051 36.5257 205.964 36.5642 205.499 37.2187C204.874 38.1235 204.686 39.1438 204.744 41.2613C204.773 42.3201 204.729 43.0131 204.627 43.1094C204.555 43.1864 204.366 43.4559 204.235 43.7254C203.465 45.2077 204.686 47.6718 206.443 48.1723C206.894 48.307 207.272 48.4225 207.301 48.4418C207.315 48.461 207.083 49.9433 206.763 51.7336C205.485 58.9333 205.107 62.7834 205.092 68.4623C205.078 72.4087 205.209 74.2568 205.456 73.429C205.514 73.198 205.644 71.9082 205.732 70.5414C206.153 64.0347 206.356 61.7054 206.69 59.0296C207.083 55.9302 208.303 48.7305 208.492 48.4803C208.55 48.4033 209.044 48.4225 209.596 48.538C212.153 49.0963 213.736 48.7113 214.434 47.4023C214.841 46.6515 214.884 45.612 214.535 45.1114C214.303 44.7457 214.303 44.6879 214.724 43.8024C215.073 43.1094 215.175 42.6474 215.175 41.9543C215.175 40.241 214.579 39.394 213.155 39.1245C212.487 38.9898 212.487 38.9898 212.56 38.3352C212.661 37.3342 212.632 36.1984 212.502 35.4092C212.4 34.7931 212.429 34.6391 212.763 34.1964L213.141 33.6959L215.204 33.8306C217.121 33.9461 217.354 33.9269 218.124 33.5226C219.431 32.8681 219.954 31.6938 219.635 30.1153C219.489 29.3645 219.504 29.249 219.824 28.6715C220.55 27.3817 220.172 25.7839 218.981 25.1294C218.545 24.8791 218.516 24.8021 218.603 24.1283C218.647 23.7241 218.618 23.0311 218.531 22.5883C218.327 21.6065 218.502 21.0098 219.01 21.0098C219.184 21.0098 219.722 21.183 220.201 21.414C221.494 22.03 222.889 22.0108 223.906 21.3563C224.981 20.644 225.417 19.8547 225.417 18.5649C225.417 17.7949 225.344 17.4677 225.068 17.0826L224.719 16.6014L225.054 15.5811C225.446 14.3876 225.475 13.04 225.126 12.1738C224.996 11.8272 224.908 11.5192 224.937 11.5C224.966 11.4615 225.344 11.346 225.795 11.2112C226.797 10.9225 228.221 10.0369 228.627 9.44018C229.296 8.4584 229.194 7.39962 228.38 6.93761C228.148 6.82211 227.959 6.6681 227.959 6.6296C227.959 6.57185 228.279 6.14834 228.686 5.66707C229.514 4.6853 230.414 2.83724 230.531 1.87472C230.603 1.2972 230.545 1.10469 230.167 0.604181C229.572 -0.185091 228.715 -0.204342 227.799 0.56568ZM229.354 1.95172C229.238 2.79874 228.511 4.10778 227.581 5.16656C226.405 6.5141 226.332 6.5526 226.565 5.64782C227.276 2.972 228.221 1.3742 229.107 1.3742C229.412 1.3742 229.441 1.43195 229.354 1.95172ZM224.327 6.16759C224.4 6.37934 224.473 6.80286 224.473 7.13011C224.473 7.78463 224.066 9.26692 223.891 9.26692C223.688 9.26692 223.586 7.36112 223.746 6.57185C223.92 5.72482 224.095 5.60932 224.327 6.16759ZM227.93 8.3429C227.799 8.86266 225.344 10.2872 225.344 9.86369C225.344 9.63268 225.635 9.34393 226.521 8.68941C227.334 8.09264 228.032 7.91939 227.93 8.3429ZM220.071 12.039C220.419 12.4433 220.448 12.5588 220.303 12.8668C219.62 14.1758 219.257 15.1576 218.865 16.7554C218.414 18.5649 218.414 18.5649 218.167 18.1029C217.528 16.7939 217.891 13.4058 218.836 11.808C219.068 11.4422 219.635 11.5385 220.071 12.039ZM224.037 12.5395C224.69 13.4058 224.269 15.3308 223.15 16.6784C222.293 17.6987 219.533 19.3157 219.533 18.7959C219.533 18.3147 220.056 16.1586 220.361 15.3693C221.32 12.8475 223.194 11.423 224.037 12.5395ZM216.715 14.0411C216.787 14.1181 216.86 14.8111 216.86 15.6196C216.845 16.4089 216.889 17.3522 216.947 17.6987L217.063 18.3147L216.7 18.0067C216.279 17.6409 215.611 15.9469 215.611 15.2346C215.611 14.6763 215.857 14.1758 216.192 14.0218C216.497 13.8678 216.54 13.8678 216.715 14.0411ZM224.327 18.1414C224.574 18.7382 224.269 19.5275 223.615 20.0087C223.18 20.336 222.816 20.4322 221.988 20.4322C221.044 20.4322 220.347 20.2205 220.55 19.9895C220.594 19.951 221.029 19.72 221.509 19.489C222.003 19.258 222.729 18.7574 223.107 18.4109C223.95 17.6409 224.124 17.6024 224.327 18.1414ZM217.267 22.3958C217.412 22.6461 217.499 23.2236 217.499 23.8011C217.499 24.9946 216.86 26.5347 215.712 28.094C215 29.0757 213.867 30.25 213.635 30.25C213.504 30.25 213.693 27.7282 213.94 26.2459C214.405 23.6086 215.407 21.9915 216.584 21.9723C216.904 21.9723 217.121 22.107 217.267 22.3958ZM213.315 23.6086C213.359 23.6663 213.272 24.2631 213.112 24.9176C212.966 25.5721 212.763 26.9582 212.661 27.9785C212.574 29.018 212.443 29.865 212.4 29.865C212.124 29.865 211.63 27.9785 211.572 26.6694C211.499 25.1101 211.673 24.2631 212.182 23.8011C212.473 23.5123 213.155 23.4161 213.315 23.6086ZM218.923 26.6309C219.606 27.5357 218.385 29.2105 216.54 29.8843L215.567 30.25L216.511 28.941C217.02 28.2287 217.572 27.3624 217.717 27.0159C218.008 26.3614 218.574 26.1689 218.923 26.6309ZM210.729 28.4405C210.904 29.0757 211.209 29.942 211.397 30.327L211.732 31.0585L211.383 30.9238C210.322 30.5003 209.364 29.2297 209.364 28.248C209.364 27.4972 209.611 27.1314 210.075 27.2084C210.351 27.2469 210.482 27.4972 210.729 28.4405ZM218.661 30.9238C218.661 31.5591 218.24 32.0981 217.543 32.3483C216.918 32.5793 215.247 32.5986 214.376 32.4061C213.693 32.2328 213.649 32.2521 216.017 31.5013C216.831 31.2318 217.688 30.9045 217.906 30.7505C218.473 30.327 218.661 30.3848 218.661 30.9238ZM211.049 35.0242C211.601 35.5054 211.703 37.392 211.252 38.9513C211.092 39.5095 210.424 41.0303 209.77 42.3201C208.376 45.0537 208.39 45.0537 208.361 41.6848C208.332 37.623 209.16 34.8701 210.41 34.8701C210.671 34.8701 210.962 34.9471 211.049 35.0242ZM207.228 37.854C207.388 37.9502 207.417 38.4122 207.359 40.4143C207.33 41.7618 207.359 43.4559 207.446 44.2067C207.533 44.9382 207.577 45.5734 207.548 45.6312C207.402 45.8237 206.574 44.5532 206.255 43.6291C205.238 40.7801 205.848 37.161 207.228 37.854ZM213.533 40.6646C214.027 40.9148 214.158 41.1651 214.158 41.8581C214.158 42.8784 213.925 43.2441 212.502 44.5147C211.615 45.2847 211.121 45.5349 209.901 45.766L209.189 45.9007L210.555 43.1864L211.906 40.4913L212.516 40.4721C212.85 40.4528 213.301 40.5491 213.533 40.6646ZM205.514 44.6879C205.572 44.8997 205.92 45.5157 206.313 46.0355C207.068 47.075 206.952 47.2867 206.022 46.5937C205.252 46.0162 204.7 44.3029 205.296 44.3029C205.368 44.3029 205.47 44.4762 205.514 44.6879ZM213.649 45.843C213.809 46.1895 213.562 46.8055 213.141 47.0942C212.865 47.2867 212.284 47.383 211.412 47.383C209.959 47.383 209.538 47.1135 210.7 46.9402C211.121 46.8632 211.819 46.5745 212.269 46.2665C213.141 45.6505 213.504 45.5542 213.649 45.843Z" fill="#D7B26A"/>
<path d="M183.758 18.5657C184.528 19.2202 185.008 20.125 185.647 22.1078L186.126 23.6093L186.504 23.0511C186.998 22.3388 187.419 22.1655 187.913 22.4928C188.785 23.0511 189.046 24.5911 188.77 27.4979L188.64 28.7877L189.061 28.9225C189.293 28.9995 189.657 29.192 189.874 29.346C190.252 29.6347 190.281 29.6155 190.833 28.961C192.01 27.5557 193.201 27.9214 193.971 29.9042C194.189 30.4625 194.276 30.5395 194.828 30.5395C196.557 30.5395 197.458 32.6571 196.688 34.9094C196.296 36.0259 195.293 37.412 194.465 37.9702C194.088 38.2205 193.768 38.5285 193.768 38.6247C193.768 38.875 193.913 38.875 194.48 38.6055C195.134 38.2975 196.063 38.6825 196.833 39.5488C197.414 40.2033 197.487 40.2418 198.577 40.2418C199.565 40.261 199.739 40.3188 200.088 40.7423C200.538 41.3006 200.901 42.1476 201.032 42.9561C201.104 43.4181 201.221 43.5529 201.758 43.7646C203.167 44.3037 203.661 46.017 202.95 47.8073C202.644 48.5388 201.598 49.5783 200.538 50.1558C199.971 50.4638 199.492 50.7911 199.477 50.8873C199.448 50.9836 199.521 51.2146 199.623 51.4264C199.811 51.7536 199.884 51.7536 200.509 51.5226C201.09 51.3109 201.264 51.3301 201.816 51.5996C202.528 51.9654 202.891 52.4274 203.414 53.6402L203.778 54.4872L204.678 54.5064C205.506 54.5257 205.594 54.5642 206.058 55.2187C206.683 56.1235 206.872 57.1438 206.814 59.2613C206.785 60.3201 206.828 61.0131 206.93 61.1094C207.003 61.1864 207.192 61.4559 207.322 61.7254C208.092 63.2077 206.872 65.6718 205.114 66.1723C204.664 66.307 204.286 66.4225 204.257 66.4418C204.242 66.461 204.475 67.9433 204.795 69.7336C206.073 76.9333 206.451 80.7834 206.465 86.4623C206.48 90.4087 206.349 92.2568 206.102 91.429C206.044 91.198 205.913 89.9082 205.826 88.5414C205.405 82.0347 205.201 79.7054 204.867 77.0296C204.475 73.9302 203.255 66.7305 203.066 66.4803C203.008 66.4033 202.514 66.4225 201.962 66.538C199.405 67.0963 197.821 66.7113 197.124 65.4023C196.717 64.6515 196.673 63.612 197.022 63.1114C197.255 62.7457 197.255 62.6879 196.833 61.8024C196.485 61.1094 196.383 60.6474 196.383 59.9543C196.383 58.241 196.979 57.394 198.402 57.1245C199.071 56.9898 199.071 56.9898 198.998 56.3352C198.896 55.3342 198.925 54.1984 199.056 53.4092C199.158 52.7931 199.129 52.6391 198.795 52.1964L198.417 51.6959L196.354 51.8306C194.436 51.9461 194.204 51.9269 193.434 51.5226C192.126 50.8681 191.603 49.6938 191.923 48.1153C192.068 47.3645 192.054 47.249 191.734 46.6715C191.008 45.3817 191.385 43.7839 192.577 43.1294C193.012 42.8791 193.042 42.8021 192.954 42.1283C192.911 41.7241 192.94 41.0311 193.027 40.5883C193.23 39.6065 193.056 39.0098 192.548 39.0098C192.373 39.0098 191.836 39.183 191.356 39.414C190.063 40.03 188.669 40.0108 187.652 39.3563C186.577 38.644 186.141 37.8547 186.141 36.5649C186.141 35.7949 186.213 35.4677 186.489 35.0826L186.838 34.6014L186.504 33.5811C186.112 32.3876 186.083 31.04 186.431 30.1738C186.562 29.8272 186.649 29.5192 186.62 29.5C186.591 29.4615 186.213 29.346 185.763 29.2112C184.761 28.9225 183.337 28.0369 182.93 27.4402C182.262 26.4584 182.364 25.3996 183.177 24.9376C183.41 24.8221 183.598 24.6681 183.598 24.6296C183.598 24.5718 183.279 24.1483 182.872 23.6671C182.044 22.6853 181.143 20.8372 181.027 19.8747C180.954 19.2972 181.012 19.1047 181.39 18.6042C181.986 17.8149 182.843 17.7957 183.758 18.5657ZM182.204 19.9517C182.32 20.7987 183.046 22.1078 183.976 23.1666C185.153 24.5141 185.226 24.5526 184.993 23.6478C184.281 20.972 183.337 19.3742 182.451 19.3742C182.146 19.3742 182.117 19.432 182.204 19.9517ZM187.23 24.1676C187.158 24.3793 187.085 24.8029 187.085 25.1301C187.085 25.7846 187.492 27.2669 187.666 27.2669C187.87 27.2669 187.971 25.3611 187.811 24.5718C187.637 23.7248 187.463 23.6093 187.23 24.1676ZM183.627 26.3429C183.758 26.8627 186.213 28.2872 186.213 27.8637C186.213 27.6327 185.923 27.3439 185.037 26.6894C184.223 26.0926 183.526 25.9194 183.627 26.3429ZM191.487 30.039C191.138 30.4433 191.109 30.5588 191.255 30.8668C191.937 32.1758 192.301 33.1576 192.693 34.7554C193.143 36.5649 193.143 36.5649 193.39 36.1029C194.029 34.7939 193.666 31.4058 192.722 29.808C192.489 29.4422 191.923 29.5385 191.487 30.039ZM187.521 30.5395C186.867 31.4058 187.288 33.3308 188.407 34.6784C189.264 35.6987 192.025 37.3157 192.025 36.7959C192.025 36.3147 191.502 34.1586 191.196 33.3693C190.238 30.8475 188.364 29.423 187.521 30.5395ZM194.843 32.0411C194.77 32.1181 194.698 32.8111 194.698 33.6196C194.712 34.4089 194.669 35.3522 194.611 35.6987L194.494 36.3147L194.858 36.0067C195.279 35.6409 195.947 33.9469 195.947 33.2346C195.947 32.6763 195.7 32.1758 195.366 32.0218C195.061 31.8678 195.017 31.8678 194.843 32.0411ZM187.23 36.1414C186.983 36.7382 187.288 37.5275 187.942 38.0087C188.378 38.336 188.741 38.4322 189.569 38.4322C190.514 38.4322 191.211 38.2205 191.008 37.9895C190.964 37.951 190.528 37.72 190.049 37.489C189.555 37.258 188.828 36.7574 188.451 36.4109C187.608 35.6409 187.434 35.6024 187.23 36.1414ZM194.291 40.3958C194.146 40.6461 194.058 41.2236 194.058 41.8011C194.058 42.9946 194.698 44.5347 195.845 46.094C196.557 47.0757 197.69 48.25 197.923 48.25C198.054 48.25 197.865 45.7282 197.618 44.2459C197.153 41.6086 196.15 39.9915 194.974 39.9723C194.654 39.9723 194.436 40.107 194.291 40.3958ZM198.242 41.6086C198.199 41.6663 198.286 42.2631 198.446 42.9176C198.591 43.5721 198.795 44.9582 198.896 45.9785C198.983 47.018 199.114 47.865 199.158 47.865C199.434 47.865 199.928 45.9785 199.986 44.6694C200.058 43.1101 199.884 42.2631 199.376 41.8011C199.085 41.5123 198.402 41.4161 198.242 41.6086ZM192.635 44.6309C191.952 45.5357 193.172 47.2105 195.017 47.8843L195.991 48.25L195.046 46.941C194.538 46.2287 193.986 45.3624 193.841 45.0159C193.55 44.3614 192.983 44.1689 192.635 44.6309ZM200.828 46.4405C200.654 47.0757 200.349 47.942 200.16 48.327L199.826 49.0585L200.175 48.9238C201.235 48.5003 202.194 47.2297 202.194 46.248C202.194 45.4972 201.947 45.1314 201.482 45.2084C201.206 45.2469 201.075 45.4972 200.828 46.4405ZM192.896 48.9238C192.896 49.5591 193.318 50.0981 194.015 50.3483C194.64 50.5793 196.31 50.5986 197.182 50.4061C197.865 50.2328 197.908 50.2521 195.54 49.5013C194.727 49.2318 193.87 48.9045 193.652 48.7505C193.085 48.327 192.896 48.3848 192.896 48.9238ZM200.509 53.0242C199.957 53.5054 199.855 55.392 200.305 56.9513C200.465 57.5095 201.134 59.0303 201.787 60.3201C203.182 63.0537 203.167 63.0537 203.196 59.6848C203.226 55.623 202.397 52.8701 201.148 52.8701C200.887 52.8701 200.596 52.9471 200.509 53.0242ZM204.33 55.854C204.17 55.9502 204.141 56.4122 204.199 58.4143C204.228 59.7618 204.199 61.4559 204.112 62.2067C204.025 62.9382 203.981 63.5734 204.01 63.6312C204.155 63.8237 204.983 62.5532 205.303 61.6291C206.32 58.7801 205.71 55.161 204.33 55.854ZM198.025 58.6646C197.531 58.9148 197.4 59.1651 197.4 59.8581C197.4 60.8784 197.632 61.2441 199.056 62.5147C199.942 63.2847 200.436 63.5349 201.657 63.766L202.368 63.9007L201.003 61.1864L199.652 58.4913L199.042 58.4721C198.707 58.4528 198.257 58.5491 198.025 58.6646ZM206.044 62.6879C205.986 62.8997 205.637 63.5157 205.245 64.0355C204.489 65.075 204.606 65.2867 205.535 64.5937C206.305 64.0162 206.858 62.3029 206.262 62.3029C206.189 62.3029 206.088 62.4762 206.044 62.6879ZM197.908 63.843C197.749 64.1895 197.996 64.8055 198.417 65.0942C198.693 65.2867 199.274 65.383 200.146 65.383C201.598 65.383 202.02 65.1135 200.858 64.9402C200.436 64.8632 199.739 64.5745 199.288 64.2665C198.417 63.6505 198.054 63.5542 197.908 63.843Z" fill="#D7B26A"/>
<rect x="406.821" y="52" width="4" height="4" transform="rotate(44.8611 406.821 52)" fill="#D7B26A"/>
<rect x="2.82129" y="52" width="4" height="4" transform="rotate(44.8611 2.82129 52)" fill="#D7B26A"/>
</svg>
