<svg width="835" height="349" viewBox="0 0 835 349" fill="none" xmlns="http://www.w3.org/2000/svg">
<path d="M145.4 182.6C146.067 182.6 146.4 183 146.4 183.8C146.4 184.6 146.067 185 145.4 185C142.733 185 138.6 184.867 133 184.6C127.133 184.333 122.933 184.2 120.4 184.2C117.067 184.2 113 184.333 108.2 184.6C103.667 184.867 100.067 185 97.4 185C96.8667 185 96.6 184.6 96.6 183.8C96.6 183 96.8667 182.6 97.4 182.6C100.867 182.6 103.333 182.267 104.8 181.6C106.4 180.8 107.2 179.467 107.2 177.6C107.2 175.333 105.867 171.533 103.2 166.2L82.4 125.2H46.8L32.6 156.6C30.8667 160.467 30 164.067 30 167.4C30 172.2 31.6667 175.933 35 178.6C38.4667 181.267 43.0667 182.6 48.8 182.6C49.4667 182.6 49.8 183 49.8 183.8C49.8 184.6 49.4667 185 48.8 185C46.4 185 42.9333 184.867 38.4 184.6C33.3333 184.333 28.9333 184.2 25.2 184.2C21.6 184.2 17.2667 184.333 12.2 184.6C7.66667 184.867 4 185 1.2 185C0.666667 185 0.4 184.6 0.4 183.8C0.4 183 0.666667 182.6 1.2 182.6C4.93333 182.6 8.06667 181.867 10.6 180.4C13.1333 178.8 15.6667 176.067 18.2 172.2C20.7333 168.2 23.7333 162.333 27.2 154.6L70.6 59.2C70.8667 58.8 71.4667 58.6 72.4 58.6C73.4667 58.6 74.0667 58.8 74.2 59.2L124.2 157.6C128.867 167.067 132.733 173.6 135.8 177.2C138.867 180.8 142.067 182.6 145.4 182.6ZM49.4 119.6H79.6L63.6 88L49.4 119.6ZM286.764 182.6C287.031 182.6 287.164 183 287.164 183.8C287.164 184.6 287.031 185 286.764 185H251.164C248.231 185 242.764 179.533 234.764 168.6C226.764 157.533 217.097 142.133 205.764 122.4C204.697 122.533 203.164 122.6 201.164 122.6C195.964 122.6 192.297 122.533 190.164 122.4V168.8C190.164 172.933 190.497 175.933 191.164 177.8C191.831 179.667 193.097 180.933 194.964 181.6C196.964 182.267 200.097 182.6 204.364 182.6C204.631 182.6 204.764 183 204.764 183.8C204.764 184.6 204.631 185 204.364 185C199.964 185 196.497 184.933 193.964 184.8L178.764 184.6L164.164 184.8C161.497 184.933 157.897 185 153.364 185C152.964 185 152.764 184.6 152.764 183.8C152.764 183 152.964 182.6 153.364 182.6C157.631 182.6 160.697 182.267 162.564 181.6C164.564 180.933 165.897 179.667 166.564 177.8C167.364 175.8 167.764 172.8 167.764 168.8V76.2C167.764 72.2 167.431 69.2667 166.764 67.4C166.097 65.5333 164.764 64.2667 162.764 63.6C160.764 62.8 157.697 62.4 153.564 62.4C153.297 62.4 153.164 62 153.164 61.2C153.164 60.4 153.297 60 153.564 60L164.164 60.2C170.297 60.4667 175.164 60.6 178.764 60.6C182.631 60.6 186.897 60.4 191.564 60C193.031 59.8667 194.897 59.7333 197.164 59.6C199.564 59.4667 202.364 59.4 205.564 59.4C217.831 59.4 227.297 61.6667 233.964 66.2C240.764 70.6 244.164 76.8 244.164 84.8C244.164 90.9333 242.297 96.8 238.564 102.4C234.831 108 229.964 112.533 223.964 116C234.631 132.8 243.564 145.933 250.764 155.4C258.097 164.867 264.564 171.8 270.164 176.2C275.897 180.467 281.431 182.6 286.764 182.6ZM190.164 116.6C193.364 117.133 197.231 117.4 201.764 117.4C206.564 117.4 210.364 116.667 213.164 115.2C215.964 113.733 217.964 111.2 219.164 107.6C220.497 104 221.164 98.9333 221.164 92.4C221.164 81.4667 219.564 73.9333 216.364 69.8C213.164 65.6667 208.564 63.6 202.564 63.6C198.031 63.6 194.831 64.6 192.964 66.6C191.097 68.6 190.164 71.9333 190.164 76.6V116.6ZM348.638 187.4C336.238 187.4 325.171 184.533 315.438 178.8C305.838 172.933 298.371 165.067 293.038 155.2C287.838 145.2 285.238 134.333 285.238 122.6C285.238 108.867 288.704 97.1333 295.638 87.4C302.571 77.5333 311.438 70.1333 322.238 65.2C333.171 60.2667 344.304 57.8 355.638 57.8C368.304 57.8 379.438 60.8 389.038 66.8C398.638 72.6667 405.971 80.4667 411.038 90.2C416.238 99.9333 418.838 110.267 418.838 121.2C418.838 133.333 415.638 144.467 409.238 154.6C402.838 164.733 394.238 172.733 383.438 178.6C372.771 184.467 361.171 187.4 348.638 187.4ZM355.238 182.4C362.704 182.4 369.371 180.267 375.238 176C381.238 171.6 385.904 165.267 389.238 157C392.571 148.6 394.238 138.6 394.238 127C394.238 114.733 392.371 103.8 388.638 94.2C384.904 84.4667 379.504 76.8667 372.438 71.4C365.371 65.9333 357.104 63.2 347.638 63.2C335.504 63.2 326.171 67.8 319.638 77C313.104 86.0667 309.838 98.8 309.838 115.2C309.838 128.133 311.771 139.733 315.638 150C319.638 160.133 325.038 168.067 331.838 173.8C338.771 179.533 346.571 182.4 355.238 182.4ZM595.163 182.6C595.429 182.6 595.563 183 595.563 183.8C595.563 184.6 595.429 185 595.163 185C590.629 185 587.029 184.933 584.363 184.8L569.563 184.6L554.563 184.8C552.029 184.933 548.563 185 544.163 185C543.763 185 543.563 184.6 543.563 183.8C543.563 183 543.763 182.6 544.163 182.6C549.763 182.6 553.563 181.933 555.563 180.6C557.563 179.267 558.563 176.467 558.563 172.2L558.363 168.8L554.163 87L512.963 183.6C512.696 184.133 512.163 184.4 511.363 184.4C510.563 184.4 510.029 184.133 509.763 183.6L459.163 87.4L457.563 159.6C457.429 166.8 458.829 172.467 461.763 176.6C464.829 180.6 469.096 182.6 474.563 182.6C474.963 182.6 475.163 183 475.163 183.8C475.163 184.6 474.963 185 474.563 185C470.963 185 468.163 184.933 466.163 184.8L455.163 184.6L442.563 184.8C440.429 184.933 437.563 185 433.963 185C433.563 185 433.363 184.6 433.363 183.8C433.363 183 433.563 182.6 433.963 182.6C439.429 182.6 443.763 180.533 446.963 176.4C450.163 172.267 451.829 166.667 451.963 159.6L453.763 76.8L453.562 76.6C450.896 71.6667 448.096 68.0667 445.163 65.8C442.363 63.5333 439.096 62.4 435.363 62.4C434.963 62.4 434.763 62 434.763 61.2C434.763 60.4 434.963 60 435.363 60L444.763 60.2C446.629 60.3333 449.029 60.4 451.963 60.4L462.563 60.2C463.763 60.0667 465.296 60 467.163 60C468.896 60 470.229 60.6 471.163 61.8C472.096 63 473.829 65.8667 476.363 70.4L519.963 152.2L557.963 65C558.763 63.1333 559.563 61.8667 560.363 61.2C561.296 60.4 562.496 60 563.963 60C565.163 60 566.496 60.0667 567.963 60.2C569.563 60.3333 571.363 60.4 573.363 60.4L585.163 60.2C587.029 60.0667 589.696 60 593.163 60C593.563 60 593.763 60.4 593.763 61.2C593.763 62 593.563 62.4 593.163 62.4C586.896 62.4 582.363 63.6667 579.563 66.2C576.763 68.7333 575.496 72.6667 575.763 78L580.563 168.8C580.829 172.933 581.296 175.933 581.963 177.8C582.763 179.667 584.096 180.933 585.963 181.6C587.963 182.267 591.029 182.6 595.163 182.6ZM743.447 182.6C744.114 182.6 744.447 183 744.447 183.8C744.447 184.6 744.114 185 743.447 185C740.78 185 736.647 184.867 731.047 184.6C725.18 184.333 720.98 184.2 718.447 184.2C715.114 184.2 711.047 184.333 706.247 184.6C701.714 184.867 698.114 185 695.447 185C694.914 185 694.647 184.6 694.647 183.8C694.647 183 694.914 182.6 695.447 182.6C698.914 182.6 701.38 182.267 702.847 181.6C704.447 180.8 705.247 179.467 705.247 177.6C705.247 175.333 703.914 171.533 701.247 166.2L680.447 125.2H644.847L630.647 156.6C628.914 160.467 628.047 164.067 628.047 167.4C628.047 172.2 629.714 175.933 633.047 178.6C636.514 181.267 641.114 182.6 646.847 182.6C647.514 182.6 647.847 183 647.847 183.8C647.847 184.6 647.514 185 646.847 185C644.447 185 640.98 184.867 636.447 184.6C631.38 184.333 626.98 184.2 623.247 184.2C619.647 184.2 615.314 184.333 610.247 184.6C605.714 184.867 602.047 185 599.247 185C598.714 185 598.447 184.6 598.447 183.8C598.447 183 598.714 182.6 599.247 182.6C602.98 182.6 606.114 181.867 608.647 180.4C611.18 178.8 613.714 176.067 616.247 172.2C618.78 168.2 621.78 162.333 625.247 154.6L668.647 59.2C668.914 58.8 669.514 58.6 670.447 58.6C671.514 58.6 672.114 58.8 672.247 59.2L722.247 157.6C726.914 167.067 730.78 173.6 733.847 177.2C736.914 180.8 740.114 182.6 743.447 182.6ZM647.447 119.6H677.647L661.647 88L647.447 119.6Z" fill="#D7B26A" fill-opacity="0.08"/>
<path d="M636.8 289.6C637.2 289.6 637.4 290 637.4 290.8C637.4 291.6 637.2 292 636.8 292C632.933 292 629.933 291.933 627.8 291.8L615.8 291.6L599.4 291.8C596.867 291.933 593.333 292 588.8 292C588.4 292 588.2 291.6 588.2 290.8C588.2 290 588.4 289.6 588.8 289.6C593.2 289.6 595.4 288.467 595.4 286.2C595.4 285 594.8 283.533 593.6 281.8L566.2 239.4L549 264C543.8 271.333 541.2 277.267 541.2 281.8C541.2 287 544.667 289.6 551.6 289.6C551.867 289.6 552 290 552 290.8C552 291.6 551.867 292 551.6 292C547.2 292 543.867 291.933 541.6 291.8L526.8 291.6L517.4 291.8C515.667 291.933 512.867 292 509 292C508.6 292 508.4 291.6 508.4 290.8C508.4 290 508.6 289.6 509 289.6C513.133 289.6 518.2 287.4 524.2 283C530.2 278.6 536.467 271.867 543 262.8L563.4 235.2L531.4 185.4C527.8 179.667 524.333 175.6 521 173.2C517.667 170.667 514.133 169.4 510.4 169.4C510 169.4 509.8 169 509.8 168.2C509.8 167.4 510 167 510.4 167L519 167.2C522.733 167.467 525.533 167.6 527.4 167.6C532.067 167.6 537.867 167.467 544.8 167.2L556.2 167C556.467 167 556.6 167.4 556.6 168.2C556.6 169 556.467 169.4 556.2 169.4C551.667 169.4 549.4 170.533 549.4 172.8C549.4 173.867 550 175.4 551.2 177.4L577.6 218L593.6 195.2C598.8 187.733 601.4 181.733 601.4 177.2C601.4 172 597.933 169.4 591 169.4C590.733 169.4 590.6 169 590.6 168.2C590.6 167.4 590.733 167 591 167L601 167.2C606.333 167.467 611.267 167.6 615.8 167.6C618.6 167.6 621.733 167.467 625.2 167.2L633.6 167C634 167 634.2 167.4 634.2 168.2C634.2 169 634 169.4 633.6 169.4C629.333 169.4 624.2 171.667 618.2 176.2C612.333 180.6 606.067 187.333 599.4 196.4L580.4 222.4L614.6 275.4C617.933 280.333 621.333 283.933 624.8 286.2C628.267 288.467 632.267 289.6 636.8 289.6ZM682.892 275.8C682.892 279.933 683.226 282.933 683.892 284.8C684.559 286.667 685.826 287.933 687.692 288.6C689.692 289.267 692.826 289.6 697.092 289.6C697.492 289.6 697.692 290 697.692 290.8C697.692 291.6 697.492 292 697.092 292C692.692 292 689.226 291.933 686.692 291.8L671.492 291.6L656.692 291.8C654.026 291.933 650.426 292 645.892 292C645.626 292 645.492 291.6 645.492 290.8C645.492 290 645.626 289.6 645.892 289.6C650.159 289.6 653.292 289.267 655.292 288.6C657.292 287.933 658.626 286.667 659.292 284.8C660.092 282.8 660.492 279.8 660.492 275.8V183.2C660.492 179.2 660.092 176.267 659.292 174.4C658.626 172.533 657.292 171.267 655.292 170.6C653.292 169.8 650.159 169.4 645.892 169.4C645.626 169.4 645.492 169 645.492 168.2C645.492 167.4 645.626 167 645.892 167L656.692 167.2C662.826 167.467 667.759 167.6 671.492 167.6C675.626 167.6 680.759 167.467 686.892 167.2L697.092 167C697.492 167 697.692 167.4 697.692 168.2C697.692 169 697.492 169.4 697.092 169.4C692.959 169.4 689.892 169.8 687.892 170.6C685.892 171.4 684.559 172.8 683.892 174.8C683.226 176.667 682.892 179.6 682.892 183.6V275.8ZM750.252 171.6C734.385 171.6 722.985 181.933 716.052 202.6C715.918 203 715.518 203.2 714.852 203.2C714.185 203.067 713.852 202.8 713.852 202.4C714.385 197.067 714.985 190.2 715.652 181.8C716.318 173.267 716.652 166.867 716.652 162.6C716.652 161.933 716.985 161.6 717.652 161.6C718.452 161.6 718.852 161.933 718.852 162.6C718.852 165.533 722.652 167 730.252 167C741.718 167.4 755.118 167.6 770.452 167.6C778.318 167.6 786.652 167.467 795.452 167.2L809.052 167C814.118 167 817.785 166.667 820.052 166C822.452 165.333 823.985 164 824.652 162C824.785 161.467 825.185 161.2 825.852 161.2C826.652 161.2 827.052 161.467 827.052 162C826.652 166 826.185 172.4 825.652 181.2C825.252 190 825.052 197.067 825.052 202.4C825.052 202.8 824.718 203 824.052 203C823.385 203 822.985 202.8 822.852 202.4C820.852 192.133 817.118 184.467 811.652 179.4C806.185 174.2 799.452 171.6 791.452 171.6C787.585 171.6 784.985 172.467 783.652 174.2C782.452 175.8 781.852 178.933 781.852 183.6V275.8C781.852 279.933 782.252 282.933 783.052 284.8C783.852 286.667 785.385 287.933 787.652 288.6C789.918 289.267 793.518 289.6 798.452 289.6C798.852 289.6 799.052 290 799.052 290.8C799.052 291.6 798.852 292 798.452 292C793.652 292 789.852 291.933 787.052 291.8L770.452 291.6L754.252 291.8C751.452 291.933 747.585 292 742.652 292C742.252 292 742.052 291.6 742.052 290.8C742.052 290 742.252 289.6 742.652 289.6C747.452 289.6 750.985 289.267 753.252 288.6C755.652 287.933 757.252 286.667 758.052 284.8C758.985 282.8 759.452 279.8 759.452 275.8V183.2C759.452 178.667 758.852 175.6 757.652 174C756.452 172.4 753.985 171.6 750.252 171.6Z" fill="#D7B26A" fill-opacity="0.27"/>
</svg>
