<svg width="398" height="74" viewBox="0 0 398 74" fill="none" xmlns="http://www.w3.org/2000/svg">
<path d="M0 37H398" stroke="white"/>
<path d="M209.799 0.565742C209.029 1.22026 208.55 2.12504 207.911 4.10784L207.431 5.60938L207.054 5.05112C206.56 4.33884 206.138 4.16559 205.644 4.49285C204.773 5.05112 204.511 6.59116 204.787 9.49799L204.918 10.7878L204.497 10.9225C204.264 10.9995 203.901 11.192 203.683 11.346C203.305 11.6348 203.276 11.6156 202.724 10.961C201.548 9.55574 200.356 9.9215 199.586 11.9043C199.368 12.4626 199.281 12.5396 198.729 12.5396C197 12.5396 196.1 14.6571 196.87 16.9095C197.262 18.026 198.264 19.412 199.092 19.9703C199.47 20.2205 199.79 20.5286 199.79 20.6248C199.79 20.8751 199.644 20.8751 199.078 20.6056C198.424 20.2975 197.494 20.6826 196.724 21.5488C196.143 22.2034 196.071 22.2419 194.981 22.2419C193.993 22.2611 193.819 22.3189 193.47 22.7424C193.02 23.3006 192.657 24.1477 192.526 24.9562C192.453 25.4182 192.337 25.5529 191.799 25.7647C190.39 26.3037 189.896 28.017 190.608 29.8073C190.913 30.5388 191.959 31.5784 193.02 32.1559C193.586 32.4639 194.066 32.7911 194.08 32.8874C194.109 32.9837 194.037 33.2147 193.935 33.4264C193.746 33.7537 193.673 33.7537 193.049 33.5227C192.468 33.3109 192.293 33.3302 191.741 33.5997C191.029 33.9654 190.666 34.4274 190.143 35.6402L189.78 36.4873L188.879 36.5065C188.051 36.5258 187.964 36.5643 187.499 37.2188C186.874 38.1236 186.686 39.1438 186.744 41.2614C186.773 42.3202 186.729 43.0132 186.627 43.1094C186.555 43.1864 186.366 43.4559 186.235 43.7255C185.465 45.2078 186.686 47.6718 188.443 48.1723C188.894 48.3071 189.272 48.4226 189.301 48.4418C189.315 48.4611 189.083 49.9434 188.763 51.7337C187.485 58.9334 187.107 62.7835 187.092 68.4624C187.078 72.4088 187.209 74.2568 187.456 73.429C187.514 73.198 187.644 71.9083 187.732 70.5415C188.153 64.0348 188.356 61.7055 188.69 59.0296C189.083 55.9303 190.303 48.7306 190.492 48.4803C190.55 48.4033 191.044 48.4226 191.596 48.5381C194.153 49.0964 195.736 48.7113 196.434 47.4023C196.841 46.6515 196.884 45.612 196.535 45.1115C196.303 44.7457 196.303 44.688 196.724 43.8025C197.073 43.1094 197.175 42.6474 197.175 41.9544C197.175 40.2411 196.579 39.3941 195.155 39.1246C194.487 38.9898 194.487 38.9898 194.56 38.3353C194.661 37.3343 194.632 36.1985 194.502 35.4092C194.4 34.7932 194.429 34.6392 194.763 34.1964L195.141 33.6959L197.204 33.8307C199.121 33.9462 199.354 33.9269 200.124 33.5227C201.431 32.8681 201.954 31.6939 201.635 30.1153C201.489 29.3646 201.504 29.2491 201.824 28.6715C202.55 27.3817 202.172 25.784 200.981 25.1294C200.545 24.8792 200.516 24.8022 200.603 24.1284C200.647 23.7241 200.618 23.0311 200.531 22.5884C200.327 21.6066 200.502 21.0098 201.01 21.0098C201.184 21.0098 201.722 21.1831 202.201 21.4141C203.494 22.0301 204.889 22.0108 205.906 21.3563C206.981 20.6441 207.417 19.8548 207.417 18.565C207.417 17.795 207.344 17.4677 207.068 17.0827L206.719 16.6014L207.054 15.5812C207.446 14.3876 207.475 13.0401 207.126 12.1738C206.996 11.8273 206.908 11.5193 206.937 11.5C206.966 11.4615 207.344 11.346 207.795 11.2113C208.797 10.9225 210.221 10.037 210.627 9.44024C211.296 8.45847 211.194 7.39968 210.381 6.93767C210.148 6.82217 209.959 6.66816 209.959 6.62966C209.959 6.57191 210.279 6.1484 210.686 5.66714C211.514 4.68536 212.414 2.8373 212.531 1.87478C212.603 1.29726 212.545 1.10476 212.167 0.60424C211.572 -0.185028 210.715 -0.204285 209.799 0.565742ZM211.354 1.95178C211.238 2.79881 210.511 4.10784 209.581 5.16662C208.405 6.51416 208.332 6.55266 208.565 5.64788C209.276 2.97206 210.221 1.37426 211.107 1.37426C211.412 1.37426 211.441 1.43201 211.354 1.95178ZM206.327 6.16765C206.4 6.3794 206.473 6.80292 206.473 7.13017C206.473 7.78469 206.066 9.26698 205.891 9.26698C205.688 9.26698 205.586 7.36118 205.746 6.57191C205.92 5.72488 206.095 5.60938 206.327 6.16765ZM209.93 8.34296C209.799 8.86272 207.344 10.2873 207.344 9.86375C207.344 9.63275 207.635 9.34399 208.521 8.68947C209.334 8.0927 210.032 7.91945 209.93 8.34296ZM202.071 12.0391C202.419 12.4433 202.448 12.5588 202.303 12.8668C201.62 14.1759 201.257 15.1576 200.865 16.7554C200.414 18.565 200.414 18.565 200.167 18.103C199.528 16.7939 199.891 13.4059 200.836 11.8081C201.068 11.4423 201.635 11.5386 202.071 12.0391ZM206.037 12.5396C206.69 13.4059 206.269 15.3309 205.15 16.6784C204.293 17.6987 201.533 19.3158 201.533 18.796C201.533 18.3147 202.056 16.1587 202.361 15.3694C203.32 12.8476 205.194 11.423 206.037 12.5396ZM198.715 14.0411C198.787 14.1181 198.86 14.8111 198.86 15.6197C198.845 16.4089 198.889 17.3522 198.947 17.6987L199.063 18.3147L198.7 18.0067C198.279 17.641 197.611 15.9469 197.611 15.2347C197.611 14.6764 197.857 14.1759 198.192 14.0219C198.497 13.8679 198.54 13.8679 198.715 14.0411ZM206.327 18.1415C206.574 18.7383 206.269 19.5275 205.615 20.0088C205.18 20.336 204.816 20.4323 203.988 20.4323C203.044 20.4323 202.347 20.2205 202.55 19.9895C202.594 19.951 203.029 19.72 203.509 19.489C204.003 19.258 204.729 18.7575 205.107 18.411C205.95 17.641 206.124 17.6025 206.327 18.1415ZM199.267 22.3959C199.412 22.6461 199.499 23.2236 199.499 23.8011C199.499 24.9947 198.86 26.5347 197.712 28.094C197 29.0758 195.867 30.2501 195.635 30.2501C195.504 30.2501 195.693 27.7283 195.94 26.246C196.405 23.6086 197.407 21.9916 198.584 21.9723C198.904 21.9723 199.121 22.1071 199.267 22.3959ZM195.315 23.6086C195.359 23.6664 195.272 24.2632 195.112 24.9177C194.966 25.5722 194.763 26.9582 194.661 27.9785C194.574 29.018 194.443 29.8651 194.4 29.8651C194.124 29.8651 193.63 27.9785 193.572 26.6695C193.499 25.1102 193.673 24.2632 194.182 23.8011C194.473 23.5124 195.155 23.4161 195.315 23.6086ZM200.923 26.631C201.606 27.5358 200.385 29.2105 198.54 29.8843L197.567 30.2501L198.511 28.941C199.02 28.2288 199.572 27.3625 199.717 27.016C200.008 26.3615 200.574 26.169 200.923 26.631ZM192.729 28.4405C192.904 29.0758 193.209 29.9421 193.397 30.3271L193.732 31.0586L193.383 30.9238C192.322 30.5003 191.364 29.2298 191.364 28.248C191.364 27.4972 191.611 27.1315 192.075 27.2085C192.351 27.247 192.482 27.4972 192.729 28.4405ZM200.661 30.9238C200.661 31.5591 200.24 32.0981 199.543 32.3484C198.918 32.5794 197.247 32.5986 196.376 32.4061C195.693 32.2329 195.649 32.2521 198.017 31.5014C198.831 31.2319 199.688 30.9046 199.906 30.7506C200.473 30.3271 200.661 30.3848 200.661 30.9238ZM193.049 35.0242C193.601 35.5055 193.703 37.392 193.252 38.9513C193.092 39.5096 192.424 41.0304 191.77 42.3202C190.376 45.0537 190.39 45.0537 190.361 41.6849C190.332 37.623 191.16 34.8702 192.41 34.8702C192.671 34.8702 192.962 34.9472 193.049 35.0242ZM189.228 37.854C189.388 37.9503 189.417 38.4123 189.359 40.4144C189.33 41.7619 189.359 43.4559 189.446 44.2067C189.533 44.9382 189.577 45.5735 189.548 45.6313C189.402 45.8238 188.574 44.5532 188.255 43.6292C187.238 40.7801 187.848 37.161 189.228 37.854ZM195.533 40.6646C196.027 40.9149 196.158 41.1651 196.158 41.8582C196.158 42.8784 195.925 43.2442 194.502 44.5147C193.615 45.2848 193.121 45.535 191.901 45.766L191.189 45.9008L192.555 43.1864L193.906 40.4914L194.516 40.4721C194.85 40.4529 195.301 40.5491 195.533 40.6646ZM187.514 44.688C187.572 44.8997 187.92 45.5158 188.313 46.0355C189.068 47.0751 188.952 47.2868 188.022 46.5938C187.252 46.0163 186.7 44.303 187.296 44.303C187.368 44.303 187.47 44.4762 187.514 44.688ZM195.649 45.843C195.809 46.1895 195.562 46.8055 195.141 47.0943C194.865 47.2868 194.284 47.3831 193.412 47.3831C191.959 47.3831 191.538 47.1136 192.7 46.9403C193.121 46.8633 193.819 46.5745 194.269 46.2665C195.141 45.6505 195.504 45.5543 195.649 45.843Z" fill="white"/>
</svg>
