<svg width="31" height="31" viewBox="0 0 31 31" fill="none" xmlns="http://www.w3.org/2000/svg">
<path d="M30.1163 25L25 19C26.5 17 27 14.621 27 12C27 11.714 27.022 11.275 27 11C26.956 10.449 26.5 9.92015 25.5 10C24.949 10.044 24.47 10.75 24.514 11.3C24.531 11.524 24.54 11.767 24.54 12C24.54 14.421 23.594 16.69 21.878 18.388C20.569 19.678 18.931 20.532 17.13 20.858C16.176 21.043 15.008 21.055 13.889 20.846C12.106 20.521 10.476 19.662 9.177 18.363C7.477 16.662 6.54 14.402 6.54 12C6.54 7.038 10.578 3 15.54 3C17.961 3 20.234 3.949 21.939 5.673C22.327 6.065 22.961 6.069 23.353 5.681C23.746 5.293 24.388 3.893 24 3.5C21.916 1.393 18.499 0 15.54 0C9.475 0 3.61626 5.935 3.61626 12C3.61626 14.601 4.351 17.027 6 19L0.616316 25.184C0.330316 25.47 0.461002 26.009 0.616002 26.383C0.771002 26.756 1.136 27 1.54 27H4.54V30C4.54 30.404 4.784 30.769 5.157 30.924C5.281 30.975 5.411 31 5.54 31C5.8 31 6.17114 30.898 6.36214 30.707L13.889 23.7765C14.38 23.8435 15.049 24 15.54 24C16.039 24 16.677 23.8365 17.13 23.7765L24.48 30.707C24.671 30.898 25.22 31 25.48 31C25.609 31 25.739 30.975 25.863 30.924C26.237 30.769 26.48 30.404 26.48 30V27H29.48C29.483 27 29.487 27 29.49 27C30.085 26.972 30.5 26.556 30.5 26C30.5 25.663 30.3713 25.181 30.1163 25ZM6.54 27.586L7.65621 26.7206C7.65621 26.1686 6.092 25 5.54 25L7.40537 26.7206L11.783 22.343C11.845 22.394 8.629 20.549 8.691 20.599C8.845 20.723 9.001 20.844 9.161 20.958C9.253 21.024 9.347 21.086 9.441 21.149C9.598 21.254 9.756 21.356 9.918 21.452C10.016 21.511 10.115 21.568 10.215 21.623C10.381 21.715 10.549 21.802 10.719 21.885C10.818 21.933 10.916 21.982 11.016 22.027C11.202 22.111 11.391 22.187 11.581 22.26C11.649 22.286 11.714 22.318 11.783 22.343L6.54 27.586ZM25.48 25C24.928 25 24.48 25.448 24.48 26L28 25L22.543 20.4028C22.619 20.3758 19.399 22.292 19.475 22.263C19.654 22.194 19.832 22.124 20.008 22.046C20.117 21.997 20.224 21.944 20.332 21.893C20.494 21.814 20.654 21.733 20.811 21.646C20.918 21.587 21.024 21.527 21.129 21.465C21.285 21.373 21.437 21.277 21.588 21.177C21.688 21.111 21.787 21.046 21.884 20.977C22.042 20.865 22.196 20.747 22.348 20.626C22.412 20.575 22.48 20.53 22.543 20.478L27.066 25H25.48Z" fill="#D7B26A"/>
<path d="M10.5 9.99998C10.098 9.62298 9.33992 9.94301 8.96292 10.346C8.58591 10.749 8.60691 11.382 9.00991 11.759L14.3229 16.73C14.5139 16.91 14.7599 17 15.0049 17C15.2499 17 15.4959 16.91 15.6879 16.73L27 6.99998C27.403 6.62298 26.377 5.67304 26 5.27004C25.622 4.86604 25.4119 4.89301 25.0099 5.27001L15.0049 14L10.5 9.99998Z" fill="#D7B26A"/>
</svg>
