<svg width="419" height="441" viewBox="0 0 419 441" fill="none" xmlns="http://www.w3.org/2000/svg">
<path d="M350.97 206.749H218.53V136.382H239.6C244.588 136.382 248.63 133.231 248.63 129.345C248.63 125.459 244.588 122.309 239.6 122.309H179.4C174.412 122.309 170.37 125.459 170.37 129.345C170.37 133.231 174.412 136.382 179.4 136.382H200.47V206.749H68.0298C63.0418 206.749 59 209.9 59 213.786V281.808C59 285.694 59.7261 306.089 64.714 306.089C69.7019 306.089 77.0596 374.827 77.0596 370.94H185.737H341.94H77.0596V309.955C77.0596 306.069 73.0177 302.918 68.0298 302.918C63.0418 302.918 59.0966 281.533 59.0966 285.419L59 377.977C59 381.863 63.0418 385.014 68.0298 385.014H350.97C355.958 385.014 360 381.863 360 377.977V213.786C360.001 209.9 355.957 206.749 350.97 206.749Z" fill="#D7B26A"/>
<path d="M376.901 119.725H301.372V98.5204C307.193 98.5204 313.666 98.5196 313.666 91.4834C313.666 87.5971 308.949 84.4463 303.128 84.4463H278.538V46.0811V8.37342C278.538 0 278.538 0 275.024 0H212.437H148.557C146.608 0 146.608 1.13774 146.608 5.02405V46.0811V83.1182H120.454C114.633 83.1182 109.915 87.5962 109.915 91.4825C109.915 95.3688 114.633 98.5196 120.454 98.5196V110.681V119.725H46.6824C17.6258 119.725 0.5 137.762 0.5 157.164V281.905V405.814C0.5 425.218 17.6258 441 46.6824 441H376.901C405.957 441 419.342 425.216 419.342 405.814V281.905V157.164C419.342 137.763 405.956 119.725 376.901 119.725ZM394 408.5C394 420.142 394.334 414.5 376.901 414.5H212.437H46.6824C29.2492 414.5 28 420.142 28 408.5V281.905V157.164C28 145.522 29.2492 145 46.6824 145H87.5H131C136.821 145 145.045 132.901 145.045 129.015V98.5204H278.538V129.015C278.538 132.901 287.179 145 293 145H332H376.901C394.334 145 394 145.522 394 157.164V281.905V408.5Z" fill="#D7B26A"/>
<path d="M209.5 58C216.404 58 222 52.4036 222 45.5C222 38.5964 216.404 33 209.5 33C202.596 33 197 38.5964 197 45.5C197 52.4036 202.596 58 209.5 58Z" fill="white"/>
</svg>
