<svg width="58" height="41" viewBox="0 0 58 41" fill="none" xmlns="http://www.w3.org/2000/svg">
<path d="M34.8468 19.0438C37.5463 17.054 39.1591 13.8796 39.1591 10.5531C39.1591 4.73469 34.425 0 28.6055 0C22.7865 0 18.0524 4.7341 18.0524 10.5531C18.0524 13.9256 19.6216 17.018 22.357 19.0391C11.5945 22.8446 9.91444 35.9757 9.65547 39.9092C9.63718 40.1918 9.73629 40.4691 9.92978 40.6761C10.1233 40.8826 10.3929 41 10.6754 41H46.5355C46.818 41 47.0888 40.8826 47.2823 40.6761C47.4758 40.4691 47.5749 40.1924 47.5566 39.9092C47.2971 35.9833 45.6128 22.8724 34.8468 19.0438Z" fill="#D7B26A"/>
<path d="M48.8225 19.5394C50.604 18.2256 51.6665 16.1302 51.6665 13.934C51.6665 10.0948 48.5417 6.96997 44.7013 6.96997C43.5999 6.96997 42.5616 7.23366 41.6343 7.69144C41.8378 8.61408 41.9464 9.56975 41.9464 10.5537C41.9464 13.3146 41.0709 15.9922 39.5059 18.2156C45.6693 22.0926 48.3434 28.8755 49.5015 34.0314H56.5351C56.7209 34.0314 56.8996 33.9541 57.0282 33.8184C57.1551 33.6827 57.22 33.4992 57.2082 33.3128C57.0383 30.719 55.9275 22.066 48.8225 19.5394Z" fill="#D7B26A"/>
<path d="M17.6837 18.2156C16.1181 16.0046 15.2627 13.3558 15.2627 10.5537C15.2627 9.56975 15.3736 8.61467 15.576 7.69144C14.6486 7.23425 13.6103 6.96997 12.509 6.96997C8.66858 6.96997 5.54378 10.0948 5.54378 13.934C5.54378 16.1609 6.5785 18.2026 8.38483 19.5358C1.28161 22.0477 0.171973 30.7154 0.00148596 33.3116C-0.0109023 33.4981 0.0545787 33.6815 0.182591 33.8172C0.310604 33.9523 0.489349 34.0296 0.675764 34.0296H7.70466C8.86031 28.8743 11.5291 22.0867 17.6837 18.2156Z" fill="#D7B26A"/>
</svg>
