<svg width="41" height="29" viewBox="0 0 41 29" fill="none" xmlns="http://www.w3.org/2000/svg">
<path d="M33.3125 0.6875C31.9339 2.00719 30.2759 3.045 28.4386 3.70612C26.5219 4.04437 21.2175 1.58437 18.6038 4.09562C18.1681 4.53125 17.63 4.96688 17.0662 5.4025C15.8362 4.86438 13.94 4.04438 12.5563 3.25C11.1725 2.45562 7.6875 0.6875 7.6875 0.6875L0 9.65625C0 9.65625 1.89625 12.2187 3.075 13.91C3.84375 15.0375 4.79187 16.7544 5.40687 17.9075L4.53562 18.9325C4.387 19.2272 4.29731 19.5731 4.29731 19.9396C4.29731 20.5417 4.53306 21.0901 4.92 21.495C5.27362 21.7589 5.71694 21.9178 6.20125 21.9178C6.68556 21.9178 7.12887 21.7589 7.48762 21.4899C7.24675 21.7692 7.10581 22.1279 7.10581 22.52C7.10581 23.0146 7.33131 23.4553 7.68494 23.7474C8.05394 23.9652 8.49725 24.0934 8.96875 24.0934C9.44025 24.0934 9.88356 23.9652 10.2628 23.7423C9.97581 24.0985 9.80925 24.5444 9.80925 25.0312C9.80925 25.5181 9.97581 25.964 10.2551 26.3176C10.5088 26.4073 10.8035 26.4611 11.111 26.4611C11.6414 26.4611 12.1334 26.2997 12.5409 26.0255C12.4307 26.2689 12.3743 26.5457 12.3743 26.8378C12.3743 27.4374 12.6203 27.9781 13.0201 28.3625C13.3532 28.5137 13.7453 28.6008 14.1553 28.6008C14.7344 28.6008 15.2751 28.4266 15.7209 28.1268L17.0432 26.9301C18.2527 28.1344 19.9209 28.8801 21.7633 28.8801C21.8146 28.8801 21.8684 28.8801 21.9196 28.8776C23.1855 28.7699 24.2464 27.9653 24.723 26.8506C25.0971 26.9941 25.5225 27.0915 25.9735 27.0915C26.5782 27.0915 27.1394 26.9173 27.6135 26.6174C29.1126 25.6258 28.7538 24.857 28.7538 24.857C29.0741 24.9979 29.4457 25.0799 29.8378 25.0799C30.6603 25.0799 31.4009 24.7161 31.9031 24.1421C32.3541 23.6782 32.6283 23.0479 32.6283 22.356C32.6283 21.8691 32.4925 21.4156 32.2568 21.0286C32.2773 21.0414 32.2952 21.0414 32.3106 21.0414C33.3894 21.0414 34.3272 20.4469 34.8167 19.5706C34.9909 19.1324 35.0858 18.6404 35.0858 18.1279C35.0858 17.2515 34.8039 16.4392 34.3272 15.7781L34.3349 15.7909C36.4362 15.3809 36.3593 14.3303 37.3843 12.7927C38.3683 11.5269 39.5676 10.4814 40.9385 9.69725L33.3125 0.6875ZM33.1844 18.7788C32.0569 19.9063 31.1856 19.4194 29.2638 17.9587C27.3419 16.4981 23.5238 13.7563 23.5238 13.7563C23.6801 14.5378 24.0414 15.2169 24.5513 15.7576C25.3688 16.6775 27.8031 18.7787 28.9563 19.855C29.6738 20.5212 31.5188 21.8537 30.4425 22.8787C29.3663 23.9037 28.5206 22.8788 26.7525 21.4438C24.9844 20.0088 21.0381 16.4725 21.0381 16.4725C21.0356 16.5186 21.033 16.5699 21.033 16.6237C21.033 17.2848 21.2995 17.8819 21.73 18.3175C22.1656 18.83 24.6 21.1875 25.625 22.2638C26.65 23.34 27.5469 23.9806 26.6756 24.8263C25.8044 25.6719 24.0362 24.3394 23.0625 23.34C21.5506 21.8794 18.5525 19.1631 18.5525 19.1631C18.5499 19.2041 18.5499 19.2502 18.5499 19.2989C18.5499 20.0267 18.8011 20.6929 19.2239 21.2208C19.9619 22.1894 21.3969 23.4451 22.2681 24.4188C23.1394 25.3926 23.6519 26.2126 22.2681 26.9813C20.8844 27.7501 18.8344 25.8538 17.9375 24.9313C17.9375 24.9288 17.9375 24.9287 17.9375 24.9262C17.9375 24.6622 17.8401 24.4214 17.6813 24.2369C17.2738 23.8602 16.7229 23.627 16.1207 23.627C15.8542 23.627 15.5979 23.6731 15.3596 23.7551C15.6876 23.463 15.8824 23.053 15.8824 22.5969C15.8824 22.1408 15.6876 21.7308 15.375 21.4438C15.0521 21.2003 14.6473 21.0542 14.2091 21.0542C13.7709 21.0542 13.3634 21.2003 13.038 21.4463C13.3378 21.1567 13.5223 20.7596 13.5223 20.3162C13.5223 19.7704 13.243 19.2913 12.8202 19.0119C12.4281 18.7634 11.9592 18.6199 11.4569 18.6199C10.8317 18.6199 10.2577 18.8454 9.81181 19.2169C10.0552 18.9248 10.1988 18.5507 10.1988 18.1407C10.1988 17.641 9.98094 17.1926 9.63756 16.8825C9.18144 16.4597 8.569 16.2009 7.89763 16.2009C7.42356 16.2009 6.98025 16.329 6.59844 16.5545L4.89437 13.6768C3.71562 11.8062 2.33188 9.85869 2.33188 9.85869L8.17438 2.76056C8.17438 2.76056 10.25 4.04181 11.9669 5.01556C12.8125 5.50244 14.2731 6.14306 15.375 6.65556C13.6325 7.96244 12.1719 9.21806 12.6075 10.0893C13.3686 10.6377 14.3192 10.9683 15.3468 10.9683C16.3103 10.9683 17.2072 10.6787 17.9554 10.1816C18.9112 9.53837 20.1079 9.14888 21.3969 9.14888C22.2861 9.14888 23.1317 9.33338 23.8979 9.66906C25.3175 10.6274 27.9312 12.9849 30.3144 14.4712C33.3125 16.6493 33.9019 18.0587 33.1844 18.7762V18.7788Z" fill="#D7B26A"/>
</svg>
