<svg width="23" height="41" viewBox="0 0 23 41" fill="#D7B26A" xmlns="http://www.w3.org/2000/svg">
<path d="M13.3519 35.3842L12.9377 35.4564V35.8768V40.5H9.02426V36.2323V35.7545L8.54698 35.7328C5.4352 35.5913 2.43812 34.7908 0.580438 33.8192L1.8322 28.927C3.94216 29.9918 6.74956 30.902 9.82826 30.902C11.3113 30.902 12.6177 30.616 13.571 30.0209C14.5457 29.4125 15.1413 28.4818 15.1413 27.285C15.1413 26.1559 14.6526 25.2399 13.6894 24.4621C12.7526 23.7056 11.3534 23.0664 9.48485 22.4356L9.32492 22.9093L9.48484 22.4356C6.82685 21.5383 4.64957 20.4855 3.14064 19.0938C1.65175 17.7205 0.799921 16.0061 0.799921 13.7176C0.799921 9.5835 3.68562 6.2855 8.87143 5.26218L9.27463 5.18261V4.77164V0.5H13.1868V4.42138V4.8995L13.6645 4.92088C16.7123 5.05725 18.8166 5.65475 20.371 6.35551L19.1651 11.0685C17.7899 10.4694 15.547 9.54775 12.285 9.54775C10.5921 9.54775 9.388 9.91174 8.59714 10.5341C7.79112 11.1683 7.47267 12.0253 7.47267 12.8629C7.47267 13.9186 8.05371 14.7296 9.09833 15.4523C10.1258 16.163 11.6829 16.8476 13.8111 17.6526L13.8111 17.6527L13.8216 17.6564C16.7713 18.6978 18.7741 19.8799 20.0408 21.309C21.2928 22.7215 21.8636 24.4187 21.8636 26.5831C21.8636 30.7713 18.9189 34.4139 13.3519 35.3842Z" fill="#D7B26A" stroke=""/>
</svg>
