<svg width="46" height="69" viewBox="0 0 46 69" fill="none" xmlns="http://www.w3.org/2000/svg">
<path d="M14.6969 3.62573C14.4928 5.79522 14.2206 10.1342 14.0165 13.2077C13.268 24.1455 9.86598 30.2924 3.4701 32.3715C1.56495 33.0043 0 33.7274 0 34.089C0 34.3602 1.56495 35.445 3.53814 36.3489C8.23299 38.5184 14.2887 46.4732 15.9897 52.7105C16.6701 55.1512 17.4866 57.5919 17.6907 57.9534C17.9629 58.4054 18.7113 55.5128 19.3918 51.6258C20.0041 47.7387 20.9567 43.4902 21.501 42.2246C22.7258 38.9704 25.9237 35.5354 29.8021 33.1851L33 31.1964L30.2103 30.1116C25.8557 28.3037 23.3381 26.315 21.433 22.9704C19.2557 19.1738 17.2825 11.7613 16.6701 4.98166C16.0577 -1.07484 15.1732 -1.70761 14.6969 3.62573ZM19.868 33.7274C19.1196 34.993 18.2351 37.2529 18.0309 38.6992C17.7588 40.2359 17.4866 41.4111 17.2825 41.4111C17.1464 41.4111 15.6495 40.1455 13.9485 38.5184L10.8866 35.6257L12.9278 33.4563C14.0845 32.2811 15.4454 30.1116 16.0577 28.5749L17.1464 25.7726L19.1876 28.5749L21.2969 31.2868L19.868 33.7274Z" fill="#D7B26A"/>
<path fill-rule="evenodd" clip-rule="evenodd" d="M16.0729 1.04488C16.0556 0.977329 16.0384 0.913033 16.0211 0.85199C15.6999 -0.28178 15.3678 -0.292118 15.086 0.869751C15.071 0.931362 15.0562 0.996265 15.0416 1.06448C14.9131 1.66259 14.7961 2.51471 14.6969 3.62573C14.527 5.43121 14.31 8.73923 14.1243 11.5699C14.0869 12.1407 14.0507 12.692 14.0165 13.2077C13.268 24.1455 9.86598 30.2924 3.4701 32.3715C1.56495 33.0043 0 33.7274 0 34.089C0 34.3602 1.56495 35.445 3.53814 36.3489C8.23299 38.5184 14.2887 46.4732 15.9897 52.7105C16.4156 54.2383 16.8949 55.7661 17.2438 56.7839C17.281 56.8923 17.3167 56.9949 17.3507 57.0911C17.5074 57.5347 17.628 57.8423 17.6907 57.9534C17.7469 58.0467 17.8233 57.9976 17.9152 57.8267C17.9174 57.8226 17.9196 57.8185 17.9218 57.8143C18.0013 57.6629 18.092 57.4224 18.191 57.1058C18.2244 56.9989 18.2588 56.8832 18.2941 56.7594C18.6196 55.6151 19.0161 53.772 19.3918 51.6258C20.0041 47.7387 20.9567 43.4902 21.501 42.2246C22.7258 38.9704 25.9237 35.5354 29.8021 33.1851L33 31.1964L30.2103 30.1116C25.8557 28.3037 23.3381 26.315 21.433 22.9704C19.2557 19.1738 17.2825 11.7613 16.6701 4.98166C16.489 3.19016 16.284 1.87323 16.0729 1.04488ZM15.6746 5.07697C16.2942 11.9287 18.2887 19.4969 20.5648 23.4667C22.6081 27.0531 25.3281 29.1674 29.8269 31.0352L29.8373 31.0395L30.7733 31.4035L29.2789 32.3328C25.286 34.7537 21.9053 38.3326 20.573 41.8516C20.26 42.5902 19.8724 44.046 19.4962 45.7233C19.1093 47.448 18.7146 49.4996 18.4053 51.4616C18.1718 52.795 17.9317 54.0012 17.708 54.9863C17.4629 54.2063 17.1993 53.3253 16.9537 52.4447C16.0591 49.1665 14.0463 45.5047 11.6823 42.3986C9.33084 39.309 6.52337 36.6268 3.95762 35.4411L3.95464 35.4398C3.02433 35.0136 2.19488 34.5478 1.60331 34.1623C2.16813 33.8998 2.93078 33.6044 3.78232 33.3215C10.7777 31.0459 14.2574 24.3357 15.0142 13.2759L15.0143 13.2739C15.0488 12.7549 15.0851 12.2012 15.1226 11.6287C15.2825 9.19271 15.4644 6.41918 15.6193 4.55222C15.638 4.72188 15.6564 4.89678 15.6746 5.07697ZM20.7288 34.2365L20.731 34.2327L22.5021 31.2075L19.9867 27.9734L16.8771 23.7045L15.1288 28.2047C15.1283 28.206 15.1277 28.2073 15.1272 28.2086C14.5576 29.636 13.267 31.6861 12.2152 32.7548L12.2073 32.7628L9.47444 35.6673L13.2572 39.241C13.258 39.2418 13.2588 39.2425 13.2595 39.2432C14.1203 40.0665 14.9318 40.8008 15.55 41.3328C15.858 41.598 16.1257 41.8195 16.3311 41.9786C16.4318 42.0566 16.5311 42.1301 16.6193 42.1882C16.6617 42.2162 16.7199 42.2529 16.7851 42.2863C16.8175 42.3029 16.8681 42.3273 16.9308 42.3496C16.9783 42.3665 17.1099 42.4111 17.2825 42.4111C17.7944 42.4111 18.0803 42.0623 18.1494 41.974C18.2533 41.8414 18.3214 41.7006 18.364 41.6029C18.4538 41.3968 18.531 41.1422 18.5984 40.8854C18.7367 40.3586 18.8785 39.6479 19.0156 38.8736L19.0187 38.8563L19.0211 38.8389C19.2027 37.552 20.0307 35.4169 20.7288 34.2365ZM13.9485 38.5184L10.8866 35.6257L12.9278 33.4563C14.0845 32.2811 15.4454 30.1116 16.0577 28.5749L17.1464 25.7726L19.1876 28.5749L21.2969 31.2868L19.868 33.7274C19.1196 34.993 18.2351 37.2529 18.0309 38.6992C17.9082 39.3921 17.7855 40.0114 17.669 40.4827C17.6683 40.4857 17.6675 40.4887 17.6668 40.4918C17.5258 41.0604 17.394 41.4111 17.2825 41.4111C17.1464 41.4111 15.6495 40.1455 13.9485 38.5184Z" fill="#9F8551"/>
<path d="M22.7897 47.4378C22.7093 48.2981 22.6021 50.0187 22.5216 51.2375C22.2268 55.5749 20.8866 58.0125 18.367 58.837C17.6165 59.0879 17 59.3747 17 59.5181C17 59.6256 17.6165 60.0558 18.3938 60.4142C20.2433 61.2745 22.6289 64.429 23.299 66.9024C23.567 67.8703 23.8887 68.8382 23.9691 68.9815C24.0763 69.1608 24.3711 68.0137 24.6392 66.4723C24.8804 64.9309 25.2557 63.2461 25.4701 62.7442C25.9526 61.4538 27.2124 60.0916 28.7402 59.1596L30 58.371L28.901 57.9408C27.1856 57.2239 26.1938 56.4353 25.4433 55.1089C24.5856 53.6034 23.8082 50.664 23.567 47.9755C23.3258 45.5738 22.9773 45.3228 22.7897 47.4378ZM24.8268 59.3747C24.532 59.8765 24.1835 60.7727 24.1031 61.3462C23.9959 61.9556 23.8887 62.4216 23.8082 62.4216C23.7546 62.4216 23.1649 61.9198 22.4948 61.2745L21.2887 60.1274L22.0928 59.2671C22.5485 58.8011 23.0845 57.9408 23.3258 57.3314L23.7546 56.2202L24.5588 57.3314L25.3897 58.4068L24.8268 59.3747Z" fill="#D7B26A"/>
<path fill-rule="evenodd" clip-rule="evenodd" d="M23.4373 46.9459C23.4638 47.1102 23.4897 47.2957 23.5148 47.5021C23.5149 47.5033 23.5151 47.5044 23.5152 47.5056C23.5329 47.6518 23.5502 47.8084 23.567 47.9755C23.5958 48.2967 23.6323 48.6214 23.6756 48.9469C23.9951 51.3458 24.688 53.7832 25.4433 55.1089C26.1852 56.42 27.1628 57.2057 28.8421 57.916C28.8616 57.9243 28.8813 57.9326 28.901 57.9408L30 58.371L28.7402 59.1596C27.2124 60.0916 25.9526 61.4538 25.4701 62.7442C25.2557 63.2461 24.8804 64.9309 24.6392 66.4723C24.5843 66.7876 24.5284 67.0864 24.4731 67.3608C24.4218 67.6158 24.3711 67.8496 24.3224 68.0559C24.2214 68.4845 24.1293 68.7942 24.0596 68.9274C24.0587 68.929 24.0579 68.9306 24.057 68.9322C24.021 68.9992 23.9911 69.0183 23.9691 68.9815C23.9226 68.8986 23.7953 68.5397 23.6444 68.0645C23.58 67.8618 23.5114 67.6381 23.4429 67.4055C23.3943 67.2408 23.3458 67.0716 23.299 66.9024C22.6289 64.429 20.2433 61.2745 18.3938 60.4142C18.1901 60.3203 17.9974 60.2214 17.824 60.1247C17.8126 60.1183 17.8012 60.1119 17.7899 60.1056C17.3201 59.8406 17 59.5956 17 59.5181C17 59.4089 17.3576 59.2165 17.8597 59.0201C17.8745 59.0143 17.8895 59.0085 17.9045 59.0027C18.0492 58.947 18.205 58.8911 18.367 58.837C20.8866 58.0125 22.2268 55.5749 22.5216 51.2375C22.5351 51.033 22.5494 50.8144 22.5641 50.5881C22.5982 50.0658 22.6349 49.5025 22.6711 48.9774C22.6937 48.65 22.7162 48.3374 22.7377 48.0588C22.7379 48.0558 22.7382 48.0528 22.7384 48.0498C22.7563 47.8184 22.7735 47.6107 22.7897 47.4378C22.8054 47.261 22.8222 47.1007 22.84 46.9568C22.999 45.6697 23.2355 45.6961 23.4373 46.9459ZM23.3975 52.5742C23.7314 53.7686 24.1361 54.8341 24.5737 55.6027C24.6186 55.682 24.6643 55.7598 24.7109 55.8359L23.4849 54.1417L22.3945 56.967C22.1955 57.4677 21.7291 58.2087 21.3778 58.568L21.3699 58.5761L19.8825 60.1674C19.6165 59.9647 19.3479 59.787 19.08 59.6412C21.6308 58.616 22.9453 56.1494 23.3975 52.5742ZM21.4267 61.6387L21.8034 61.997C22.1487 62.3294 22.4758 62.6274 22.7279 62.8458C22.8529 62.9542 22.9672 63.0496 23.0599 63.1218C23.1042 63.1564 23.1572 63.1963 23.2107 63.2319C23.2358 63.2485 23.2795 63.2767 23.3334 63.3045C23.3601 63.3183 23.406 63.3407 23.4647 63.3617C23.5082 63.3772 23.6371 63.4216 23.8082 63.4216C23.9834 63.4216 24.1303 63.3796 24.2495 63.3223C24.1947 63.5375 24.1407 63.7674 24.0886 64.0009C23.9948 64.4218 23.9001 64.89 23.8125 65.369C23.3757 64.3598 22.7619 63.3438 22.0863 62.4503C21.8767 62.173 21.6558 61.9006 21.4267 61.6387ZM25.158 61.1848C25.2717 60.763 25.4953 60.211 25.689 59.8812L25.6912 59.8774L26.5924 58.3279L25.3597 56.7324L25.3577 56.7297C26.0083 57.4884 26.8058 58.0592 27.8298 58.5555C26.7649 59.2712 25.8113 60.1918 25.158 61.1848ZM24.5588 57.3314L25.3897 58.4068L24.8268 59.3747C24.532 59.8765 24.1835 60.7727 24.1031 61.3462C24.1008 61.3592 24.0985 61.372 24.0963 61.3848C24.0917 61.4103 24.0872 61.4355 24.0827 61.4605C23.9824 62.0129 23.8836 62.4216 23.8082 62.4216C23.7702 62.4216 23.462 62.1687 23.0466 61.7912C23.0326 61.7784 23.0185 61.7655 23.0042 61.7525C22.8459 61.6079 22.6732 61.4463 22.4948 61.2745L21.2887 60.1274L22.0928 59.2671C22.5481 58.8014 23.0838 57.942 23.3253 57.3326C23.3255 57.3322 23.3256 57.3318 23.3258 57.3314L23.7546 56.2202L24.5588 57.3314Z" fill="#9F8551"/>
<path d="M35.4619 6.12543C35.3443 7.3972 35.1876 9.94074 35.0701 11.7424C34.6392 18.1543 32.6804 21.7576 28.9979 22.9764C27.901 23.3473 27 23.7713 27 23.9832C27 24.1422 27.901 24.7781 29.0371 25.308C31.7402 26.5798 35.2268 31.2429 36.2062 34.8993C36.5979 36.33 37.068 37.7607 37.1856 37.9727C37.3423 38.2377 37.7732 36.542 38.1649 34.2634C38.5175 31.9848 39.066 29.4942 39.3794 28.7524C40.0845 26.8447 41.9258 24.8311 44.1588 23.4533L46 22.2875L44.3938 21.6516C41.8866 20.5918 40.4371 19.426 39.3402 17.4654C38.0866 15.2398 36.9505 10.8946 36.5979 6.92028C36.2454 3.36992 35.7361 2.99899 35.4619 6.12543ZM38.4392 23.7713C38.0082 24.5131 37.499 25.8379 37.3814 26.6857C37.2247 27.5866 37.068 28.2754 36.9505 28.2754C36.8722 28.2754 36.0103 27.5336 35.0309 26.5798L33.268 24.8841L34.4433 23.6123C35.1093 22.9234 35.8928 21.6516 36.2454 20.7508L36.8722 19.1081L38.0474 20.7508L39.2619 22.3405L38.4392 23.7713Z" fill="#D7B26A"/>
<path fill-rule="evenodd" clip-rule="evenodd" d="M36.4848 5.92728C36.4326 5.53106 36.3784 5.19507 36.3229 4.92009C36.0769 3.70084 35.8078 3.68145 35.6031 4.93305C35.5581 5.20866 35.5161 5.54588 35.4783 5.94551C35.4727 6.00414 35.4672 6.06411 35.4619 6.12543C35.3641 7.18379 35.2391 9.12294 35.1322 10.7823C35.1106 11.1169 35.0898 11.4401 35.0701 11.7424C34.6392 18.1543 32.6804 21.7576 28.9979 22.9764C28.558 23.1252 28.1496 23.2825 27.8182 23.4312C27.8174 23.4315 27.8167 23.4318 27.8159 23.4322C27.3223 23.6539 27 23.8565 27 23.9832C27 24.1422 27.901 24.7781 29.0371 25.308C31.7402 26.5798 35.2268 31.2429 36.2062 34.8993C36.3636 35.4741 36.5336 36.049 36.6884 36.5448C36.7472 36.7332 36.8038 36.9103 36.8567 37.0715C37.0109 37.542 37.1332 37.8783 37.1856 37.9727C37.2175 38.0267 37.2608 37.9993 37.3129 37.9021C37.3141 37.8999 37.3153 37.8976 37.3165 37.8953C37.3916 37.7515 37.4845 37.4652 37.5875 37.0705C37.6316 36.9013 37.6776 36.7122 37.7247 36.5059C37.866 35.8884 38.0182 35.1168 38.1649 34.2634C38.5175 31.9848 39.066 29.4942 39.3794 28.7524C40.0845 26.8447 41.9258 24.8311 44.1588 23.4533L46 22.2875L44.3938 21.6516C41.8866 20.5918 40.4371 19.426 39.3402 17.4654C38.0866 15.2398 36.9505 10.8946 36.5979 6.92028C36.5617 6.55563 36.5239 6.22451 36.4848 5.92728ZM36.1355 10.7636C36.6842 13.6041 37.5295 16.2878 38.4683 17.955C39.6704 20.103 41.2698 21.3869 43.811 22.4899L43.6287 22.6054C41.2789 24.0564 39.2584 26.2157 38.4488 28.3856C38.253 28.8599 38.0246 29.7438 37.8103 30.7164C37.5859 31.7349 37.3573 32.9446 37.178 34.1021C37.158 34.2183 37.138 34.3327 37.1179 34.4451C36.5622 32.5112 35.4064 30.3997 34.069 28.6107C32.7002 26.7796 31.0337 25.1422 29.4628 24.4031L29.4598 24.4017C29.2428 24.3005 29.036 24.1955 28.8454 24.0919C28.9936 24.0364 29.151 23.9803 29.3153 23.9247C33.5992 22.5052 35.6294 18.3336 36.0679 11.8095L36.068 11.8075C36.0879 11.5019 36.1089 11.1763 36.1306 10.8401C36.1322 10.8147 36.1338 10.7892 36.1355 10.7636ZM39.3061 24.2697L40.4604 22.2622L38.8516 20.1562L36.6018 17.0116L35.3127 20.3901C35.0015 21.183 34.2867 22.3355 33.7243 22.9172L33.7165 22.9253L31.8684 24.9253L34.3354 27.2983C34.8353 27.7851 35.3077 28.2202 35.6695 28.5374C35.8494 28.695 36.0097 28.8302 36.1361 28.9299C36.1974 28.9782 36.2642 29.0289 36.3282 29.0719C36.3584 29.0922 36.4066 29.1234 36.4641 29.1534C36.4926 29.1683 36.5402 29.1917 36.6005 29.2136C36.6454 29.2298 36.7767 29.2754 36.9505 29.2754C37.4595 29.2754 37.735 28.924 37.7891 28.8537C37.8798 28.7356 37.935 28.6166 37.9647 28.5472C38.0289 28.3974 38.0794 28.2242 38.1196 28.0681C38.2034 27.743 38.2873 27.3134 38.3666 26.8571L38.3696 26.8401L38.372 26.823C38.4678 26.1319 38.9223 24.9305 39.3039 24.2735L39.3061 24.2697ZM36.2454 20.7508L36.8722 19.1081L38.0474 20.7508L39.2619 22.3405L38.4392 23.7713C38.0082 24.5131 37.499 25.8379 37.3814 26.6857C37.3448 26.8962 37.3082 27.0952 37.2721 27.2764C37.2688 27.2932 37.2654 27.3098 37.2621 27.3262C37.1473 27.8934 37.038 28.2754 36.9505 28.2754C36.9062 28.2754 36.611 28.0379 36.1856 27.6589C36.1784 27.6525 36.1712 27.6461 36.164 27.6396C35.8415 27.3516 35.4468 26.9848 35.0309 26.5798L33.268 24.8841L34.4433 23.6123C35.1093 22.9234 35.8928 21.6516 36.2454 20.7508Z" fill="#9F8551"/>
</svg>
