<svg width="65" height="192" viewBox="0 0 65 192" fill="none" xmlns="http://www.w3.org/2000/svg">
<path d="M29.8688 0.156963C29.5637 0.291717 29.1569 0.618976 28.968 0.849983C28.5032 1.4275 27.9075 3.12155 27.7913 4.19958C27.7477 4.68084 27.6751 5.06585 27.6315 5.06585C27.5879 5.06585 27.4136 4.8926 27.2392 4.68084C26.4693 3.71831 25.4814 4.16108 25.1618 5.60487C24.7695 7.29892 25.031 9.43573 25.8736 11.6495C26.2659 12.6891 26.3966 13.5168 26.2078 13.7671C26.1642 13.8441 25.8881 13.6708 25.6121 13.4206C24.9874 12.8623 24.4935 12.8431 23.8833 13.3243C23.4475 13.6708 22.8082 15.0761 22.8082 15.6922C22.8082 16.1542 22.5177 16.3659 21.7477 16.4814C20.2368 16.6932 19.6993 18.6567 20.5419 20.832C20.9487 21.8523 22.0818 23.2384 22.9971 23.8159L23.8397 24.3356L23.491 24.7014C23.3022 24.8939 22.9971 25.4522 22.7937 25.9334L22.445 26.819H21.646C20.2078 26.819 19.4378 27.9355 19.3942 30.0916C19.3506 31.4776 19.3797 31.3813 18.8857 31.7279C18.2756 32.1514 17.985 32.8251 17.985 33.8454C17.985 34.9812 18.508 36.0592 19.2634 36.5405C19.6993 36.81 20.0915 36.8678 21.4862 36.81L23.1714 36.733L23.215 37.3683C23.2586 37.8688 23.1569 38.1575 22.692 38.8506C22.2126 39.5821 21.893 40.4099 21.5588 41.8151C21.5153 41.9884 21.3845 42.0269 21.1666 41.9306C20.9923 41.8729 20.5564 41.7574 20.1932 41.6996C18.5371 41.4494 17.5346 44.0097 18.232 46.647C18.5371 47.7828 18.508 47.9176 18.0141 48.1871C17.2877 48.5913 16.9971 49.2459 16.9971 50.4586C16.9971 51.4404 17.0407 51.5559 17.6218 52.3259C18.4789 53.4617 19.4378 53.8275 21.399 53.7312L22.8809 53.6735L23.1279 56.3686C23.5782 61.0849 24.4208 66.2826 25.4233 70.3252C26.1061 73.1165 28.169 78.1024 31.1036 84.1086C33.4572 88.9212 36.1739 95.7552 37.0455 99.1048C37.4814 100.78 37.4814 100.818 37.1618 100.414C36.9729 100.202 36.6823 99.9518 36.508 99.8748C36.2465 99.7785 36.1739 99.6053 36.1739 99.1433C36.1739 98.0845 35.8978 97.1797 35.4039 96.5444C34.7937 95.7744 34.2562 95.5627 33.4717 95.7937C32.9051 95.9669 32.8034 95.9284 32.1642 95.3702C31.6412 94.9081 31.3216 94.7734 30.784 94.7734C30.0867 94.7734 29.9269 94.6001 29.9269 93.8301C29.9269 93.6569 30.2465 93.0216 30.6387 92.4441C31.5685 91.058 31.9608 90.057 31.9608 89.056C31.9608 88.055 31.4378 87.1887 30.5952 86.8422C30.1157 86.6304 29.985 86.4572 29.8252 85.7834C29.5346 84.6284 28.7792 83.8006 27.9947 83.8006C27.646 83.8006 27.1811 83.9546 26.9051 84.1856C26.6436 84.3974 26.4111 84.5706 26.3676 84.5706C26.2659 84.5706 26.4838 83.1268 26.7598 82.068C27.6315 78.7569 26.9923 75.7154 25.4378 75.7154C24.9148 75.7154 24.3627 76.0811 24.0141 76.6201C23.8688 76.8511 23.8252 76.8319 23.6654 76.4469C23.2731 75.4266 22.4886 74.3871 21.8639 74.0598C21.5007 73.8481 21.2247 73.6555 21.2538 73.5978C21.8639 72.2118 22.2562 70.768 22.2562 69.8824C22.2707 67.3606 20.9777 66.3403 19.7719 67.8996C19.2489 68.5734 19.2053 68.5927 19.1182 68.2461C18.9584 67.5724 18.1739 66.2826 17.6799 65.8976C17.4184 65.6858 16.9826 65.5126 16.692 65.5126C16.2126 65.5126 16.1545 65.4548 15.9947 64.781C15.7477 63.7993 15.1375 62.6827 14.4838 61.9705C12.9874 60.3727 11.2586 62.1052 12.1157 64.319C12.4499 65.1853 13.6702 66.5521 14.5564 67.0526C15.3555 67.5339 15.37 67.5531 15.4717 68.4964C15.5879 69.7284 15.9947 70.9412 16.6194 71.9615L17.1133 72.7508L16.4741 72.7893C15.7332 72.8278 14.7889 73.4053 14.4693 74.0213C13.83 75.2148 14.6436 77.0436 15.9511 77.4287C16.9099 77.6982 18.1303 77.2554 18.9003 76.3699C19.1036 76.1196 19.1472 76.1966 19.2199 77.2361C19.278 77.8714 19.4523 78.8532 19.6121 79.4115C19.7719 79.9697 19.9027 80.451 19.9027 80.4702C19.9027 80.5087 19.7719 80.528 19.5976 80.528C19.0746 80.528 18.2901 81.144 17.9995 81.76C17.0843 83.7428 18.7404 86.4957 20.8179 86.4957C21.1666 86.4957 21.7768 86.3609 22.169 86.2069C22.5613 86.0529 22.9099 85.9181 22.9535 85.9181C22.9971 85.9181 23.0262 86.6304 23.0407 87.4967C23.0552 88.979 23.0262 89.0945 22.663 89.518C22.1109 90.134 21.893 90.9425 21.9656 92.0976C22.0383 92.9446 22.1254 93.1949 22.7211 93.9841C23.3022 94.7541 23.3894 94.9852 23.3167 95.4087C23.1714 96.1209 23.491 97.199 23.9705 97.661C25.0165 98.6428 26.0189 98.2192 27.6315 96.1209C28.2126 95.3702 28.7937 94.7926 28.9099 94.8119C29.2295 94.9081 29.2586 95.4857 28.9826 96.2557C28.7356 96.9487 28.7356 98.6043 28.9826 99.432C29.0552 99.663 28.9535 99.8363 28.6194 100.067C27.2392 101.011 27.2973 103.667 28.7211 105.072C29.4184 105.785 29.462 105.862 29.462 106.651C29.462 107.479 29.9269 108.172 30.6823 108.48C31.5685 108.826 32.2078 108.48 33.9366 106.689C34.1109 106.497 35.0407 109.808 35.8107 113.408C36.5806 117.008 38.353 128.539 38.1642 128.77C38.1351 128.808 37.801 127.557 37.4233 125.998C37.031 124.438 36.3918 122.302 35.985 121.243C34.5322 117.489 30.4063 109.904 27.5734 105.823C26.9051 104.861 25.2925 102.743 23.985 101.107C21.1521 97.584 19.4959 95.1969 16.8954 90.8848C13.7864 85.6871 12.2029 83.4156 12.2029 84.1278C12.2029 84.7054 13.5685 91.366 14.0189 92.9446C15.4136 97.9112 18.3918 104.168 20.8034 107.209C21.3845 107.941 23.0116 109.75 24.4063 111.213C30.4644 117.585 33.4862 122.841 36.5806 132.408C37.9608 136.682 38.5128 139.55 38.4838 142.399C38.4838 143.978 37.6993 151.409 37.5976 150.985C37.554 150.831 37.3797 149.618 37.2053 148.309C36.8131 145.364 35.9705 141.841 34.9971 139.223C34.1109 136.817 33.6605 135.854 32.3676 133.525L31.3797 131.773V130.021V128.269L32.0334 127.442C32.6291 126.672 32.6872 126.537 32.6872 125.651C32.6872 124.073 31.8591 122.879 30.784 122.879C30.3046 122.879 29.6944 123.457 29.3603 124.227C28.8373 125.459 29.0116 126.595 29.8542 127.634C30.3046 128.173 30.3627 128.366 30.3627 129.213C30.3627 129.752 30.3191 130.194 30.2756 130.194C30.232 130.194 29.738 129.655 29.186 129.001C28.6339 128.327 27.5007 127.191 26.6872 126.441L25.2053 125.093L24.8131 123.514C24.5806 122.667 24.3627 121.57 24.3191 121.089C24.232 120.338 24.2756 120.165 24.5516 119.857C25.6121 118.683 25.4378 116.546 24.2029 115.699C23.5492 115.237 22.8518 115.371 22.2271 116.064C21.1811 117.239 21.4717 119.183 22.8664 120.28C23.0116 120.396 23.2441 121.185 23.462 122.263C23.6654 123.245 23.8252 124.092 23.8252 124.13C23.8252 124.15 23.1279 123.822 22.2707 123.36C20.7453 122.552 20.7162 122.513 20.5419 121.724C20.3095 120.704 19.9898 120.223 19.2053 119.761C18.4499 119.318 17.8542 119.491 17.2295 120.357C16.663 121.127 16.5903 122.167 17.0262 123.264C17.6073 124.766 18.9438 125.324 19.8736 124.438C20.1206 124.227 20.4257 124.034 20.5564 124.034C20.9051 124.034 23.1569 125.305 24.261 126.113L25.2053 126.806L24.0722 127.288C23.0552 127.73 22.8954 127.75 22.4741 127.519C22.2271 127.365 21.7041 127.211 21.3119 127.172C20.6872 127.076 20.5855 127.134 20.1206 127.75C19.6702 128.346 19.6121 128.539 19.6121 129.386C19.6121 132.755 23.1133 133.371 23.3603 130.04L23.4184 129.059L24.3482 128.577C25.8591 127.769 26.2513 127.75 27.0794 128.481C28.7501 129.963 31.3361 133.679 32.7308 136.605C33.3845 137.933 34.4741 140.782 34.3869 140.898C34.3579 140.955 33.9366 140.724 33.4717 140.416C32.5274 139.8 30.3772 138.857 29.9124 138.857C29.709 138.857 29.5492 138.607 29.3458 137.991C28.6484 135.835 26.4693 135.758 25.9898 137.875C25.8446 138.491 25.8736 138.742 26.1206 139.492C26.6436 141.071 27.8203 141.591 28.8082 140.705C29.1133 140.436 29.4765 140.205 29.6073 140.205C30.6387 140.205 34.3288 142.207 34.968 143.131C35.1424 143.381 35.4329 144.344 35.6509 145.402C36.5952 150.138 36.8276 153.776 36.5661 159.648C36.2756 165.673 36.4644 178.225 36.8857 182.44C37.0601 184.134 37.2925 186.04 37.4233 186.675C37.7574 188.427 38.3966 191.026 38.4983 191.026C38.5564 191.026 38.5128 190.141 38.4111 189.063C37.7574 182.306 37.4814 177.397 37.4814 172.873C37.4814 165.538 37.7138 161.534 38.6581 152.14C39.1521 147.135 39.2973 146.384 40.2271 143.766C41.4184 140.416 42.508 138.337 46.1981 132.216C48.3482 128.654 50.6145 124.111 51.9511 120.704C55.0891 112.657 57.4426 102.936 57.9511 95.8514C58.14 93.3296 58.1545 92.8483 57.9947 92.8483C57.7477 92.8483 54.7114 97.4107 53.0697 100.241C52.14 101.838 50.876 103.937 50.2659 104.88C49.6702 105.842 48.5516 107.748 47.7961 109.096C47.0407 110.463 45.7768 112.657 44.9923 113.966C43.0455 117.277 42.4063 118.798 41.4765 122.205L41.1133 123.553L41.1714 121.339C41.2586 118.221 42.0576 113.1 43.3942 107.19C44.1496 103.821 45.6315 98.4117 45.8204 98.3347C45.9075 98.3155 46.9535 97.8727 48.1448 97.3722L50.3095 96.4674L50.847 96.8717C52.0092 97.738 53.1714 97.0642 53.6944 95.2547C54.232 93.3681 53.2586 91.1158 51.893 91.1158C50.7598 91.1158 49.9753 92.2516 49.8446 94.0611L49.7574 95.2162L48.1884 95.9862C47.3312 96.4097 46.5903 96.6984 46.5322 96.6407C46.4886 96.5829 46.692 95.8129 46.9681 94.9274C47.2441 94.0419 47.8543 91.7703 48.3046 89.8645C49.4087 85.2829 49.2925 85.6101 49.8881 85.4561C50.9923 85.1866 51.6605 83.8968 51.5443 82.2413C51.4136 80.605 50.6145 79.5462 49.3651 79.4307C48.7986 79.373 48.4644 79.45 48.0867 79.7195C47.4911 80.1622 46.9245 81.4713 46.9245 82.4145C46.9245 83.2038 47.2877 84.2626 47.709 84.7246C48.232 85.2636 48.261 85.4754 47.9414 86.9192C47.4765 89.056 46.1109 94.3691 45.7913 95.3124L45.5007 96.1594L45.2102 93.9649C44.5128 89.0367 44.5274 89.2292 44.9342 88.8057C45.7622 87.9395 45.8494 85.9759 45.094 84.9364C44.2513 83.7621 42.8857 83.7813 41.9995 84.9941C40.9245 86.4572 41.4329 88.825 42.9438 89.364L43.525 89.5757L44.077 93.2719C44.3676 95.3124 44.6 97.2567 44.6 97.584C44.6 97.9112 44.2513 99.4705 43.8155 101.049C42.6388 105.419 41.0843 112.676 40.6484 115.853C40.6194 116.064 40.5032 114.89 40.3869 113.254C40.2271 111.021 40.169 107.228 40.169 98.046C40.169 86.8999 40.1981 85.7641 40.416 85.2251C40.7501 84.4166 41.4765 83.6081 42.7404 82.6263C44.6872 81.1248 46.0528 78.8532 46.0528 77.1206C46.0528 75.6576 45.1085 74.7913 43.7283 75.0031L43.0455 75.1186L42.9584 73.8288C42.8421 71.8652 42.6097 71.0952 41.8978 70.1904C40.7356 68.7082 40.9099 68.0344 42.755 67.0526C43.9463 66.3981 45.4862 65.0313 45.7477 64.3768C45.9802 63.8185 45.9366 62.856 45.6605 62.2207C45.4426 61.7202 45.4281 61.6047 45.617 61.2197C46.5032 59.3909 46.5758 58.3129 45.893 57.5428C45.646 57.2733 45.3264 57.0423 45.1666 57.0423C44.7308 57.0423 43.8446 57.5813 43.4233 58.1204L43.031 58.6016L43.1763 57.5813C43.3942 56.022 43.2635 54.2702 42.8857 53.5965C42.7114 53.2692 42.5661 52.8842 42.5661 52.7302C42.5661 52.5762 43.4668 51.6522 44.571 50.6704C47.3603 48.1486 48.261 46.8588 48.4644 45.0492C48.6097 43.7402 47.5782 42.5274 46.3288 42.5467C45.617 42.5659 45.1811 42.7969 44.6145 43.4514C44.2804 43.8365 44.2659 43.8365 44.3821 43.4707C44.4402 43.2589 44.5274 42.2964 44.5564 41.3146C44.6291 39.6591 44.6145 39.5051 44.2513 38.6773C43.8155 37.6955 43.8155 37.7533 44.6436 36.348C45.7622 34.4614 46.3869 32.0359 46.1254 30.4958C46.0673 30.1686 45.8639 29.6295 45.6605 29.3215C44.8325 28.0125 43.5395 28.9365 42.9874 31.2081C42.7259 32.2669 42.6823 32.9406 42.6823 34.9812L42.6969 37.4838L42.0722 38.196C41.3312 39.0623 40.692 40.8141 40.5758 42.3157C40.5322 42.8932 40.445 43.3744 40.3869 43.3744C40.3434 43.3744 40.1545 43.1627 39.9802 42.8932C39.37 41.9691 38.2513 42.0269 37.5395 43.0087C37.1472 43.5477 37.1182 43.7017 37.1182 45.0685C37.1182 46.2813 37.1908 46.7625 37.5104 47.6481C38.0044 49.0533 38.9923 50.4586 40.3434 51.6522L41.4184 52.5954L40.9826 52.8842C40.1835 53.4425 39.3845 54.8863 39.0504 56.3878L38.7308 57.7931L38.3821 57.4081C37.3942 56.3878 36.0141 57.7931 36.0431 59.7759C36.0431 60.1224 36.1593 60.8924 36.2901 61.47L36.5516 62.5287L35.985 63.241C35.4765 63.8763 35.4184 64.0303 35.5056 64.5885C35.5492 64.935 35.709 65.4356 35.8688 65.7051C36.2756 66.4558 37.5976 67.2451 38.847 67.4954C40.0237 67.7456 40.2417 67.9381 40.2417 68.8237C40.2417 69.2087 40.1254 69.4012 39.7041 69.6899C38.9051 70.2482 38.2368 71.5765 37.9463 73.2128C37.6993 74.5603 37.6993 74.5796 37.278 74.4833C36.6678 74.3101 35.7961 74.6951 35.462 75.2533C34.8518 76.2736 34.9245 78.9302 35.6363 80.9708C36.0722 82.222 37.278 83.9931 38.3385 84.9364C38.9342 85.4561 39.1521 85.7641 39.1375 86.0721C39.1375 86.3032 39.1085 90.3265 39.094 95.0044C39.0649 102.878 39.0358 103.436 38.847 102.377C38.3676 99.7208 37.278 95.8899 35.8833 91.8858C33.399 84.7631 32.9632 81.9718 32.8615 72.5775C32.7889 65.7436 32.9341 62.9522 33.5879 58.0626C34.0237 54.867 34.0528 54.328 34.0528 50.1121C34.0528 45.5305 33.6896 39.5821 33.1811 36.0592C32.9487 34.4229 32.1206 30.8616 31.9608 30.8616C31.8591 30.8616 31.7138 31.6124 31.0165 35.8667C30.755 37.503 30.1448 41.1029 29.6509 43.8557C28.14 52.3644 27.5153 58.3899 27.646 63.01C27.7622 67.3221 28.8082 73.4438 30.3482 78.8917C30.6823 80.0275 30.9438 81.0093 30.9438 81.0863C30.9438 81.606 27.1811 72.77 26.7453 71.1915C26.1787 69.1702 25.2925 64.8195 24.8567 61.7972C24.3046 58.0241 23.8978 54.2895 23.9995 53.9237C24.0576 53.7505 24.4789 53.558 25.1182 53.404C26.2659 53.1345 27.1375 52.4414 27.6024 51.4019C27.9366 50.6896 27.9656 49.9966 27.7187 48.9378C27.5734 48.2641 27.5879 48.0716 27.922 47.1668C28.8809 44.568 28.8373 42.3542 27.7913 41.2569C27.4426 40.8911 27.2683 40.8526 26.571 40.9489L25.7574 41.0451L25.5104 40.0056C25.2925 39.0431 24.6242 37.9843 24.2465 37.9843C24.1739 37.9843 24.1157 37.7725 24.1157 37.5223C24.1157 37.1758 24.2174 37.041 24.5661 36.9448C24.8131 36.887 25.1763 36.887 25.3651 36.9448C25.7864 37.0795 27.8349 36.5212 28.2998 36.1362C28.7647 35.732 29.2005 34.7309 29.2005 34.0187C29.2005 33.6914 29.0552 33.1716 28.8809 32.8829C28.6049 32.4209 28.5903 32.2861 28.7356 31.7471C29.2441 29.8798 28.5467 27.974 27.3555 27.974C26.9923 27.974 26.876 27.897 26.876 27.6275C26.876 26.9922 26.5855 25.8949 26.2223 25.2212C25.83 24.4512 25.8155 24.4704 26.9487 24.2201C28.8373 23.8351 30.2756 22.7186 30.4354 21.5443C30.6242 20.293 29.7235 18.7337 28.8228 18.7337C28.416 18.7337 28.1835 18.368 28.1835 17.675C28.169 16.9434 27.922 16.5007 27.2828 16.1542C26.8325 15.9039 26.7889 15.8077 26.847 15.2879C26.9341 14.5371 27.37 14.0366 28.3288 13.6323C30.1884 12.8431 31.4959 11.6303 32.0189 10.225C32.4547 9.08922 32.4983 8.37695 32.1787 7.56842C31.9027 6.8754 31.4959 6.56739 30.6823 6.41339L30.0576 6.31714L30.6533 5.29686C31.6557 3.50656 31.9027 1.3505 31.1763 0.484222C30.7259 -0.0547931 30.4789 -0.112545 29.8688 0.156963ZM30.5806 2.52478C30.4789 3.3718 29.9705 4.48834 29.1279 5.73962L28.6049 6.50964L28.6775 5.21986C28.7647 3.71831 29.2005 2.37078 29.8252 1.67776C30.2029 1.25424 30.2901 1.23499 30.4789 1.466C30.6242 1.67776 30.6533 1.96651 30.5806 2.52478ZM26.847 6.20163C27.0068 6.97166 26.9632 10.1287 26.7743 10.5523C26.6291 10.8795 26.6 10.8603 26.3676 10.1672C26.048 9.22397 25.9027 6.45189 26.1351 5.87437C26.3385 5.35461 26.7017 5.50861 26.847 6.20163ZM31.2053 7.99193C31.6412 8.56945 31.2199 10.0132 30.3337 10.8988C29.738 11.4955 27.9075 12.6698 27.7913 12.5158C27.6751 12.3426 28.1254 10.7255 28.5613 9.74373C29.2295 8.22294 30.6678 7.27966 31.2053 7.99193ZM25.1182 14.5756C25.3942 14.9991 25.4668 16.5007 25.2925 17.8867C24.9874 20.3123 24.6533 22.1988 24.5371 22.1988C24.3337 22.1988 23.8107 19.6578 23.7235 18.2332C23.6218 16.5969 23.7235 15.7884 24.1157 14.9221C24.4208 14.2676 24.8421 14.1136 25.1182 14.5756ZM27.2392 17.7712C27.4281 18.5412 26.6872 20.8898 26.0044 21.7176C25.6412 22.1411 25.6412 22.1603 26.0189 19.6963C26.1932 18.5605 26.4257 17.5787 26.5419 17.444C26.8179 17.1552 27.123 17.3092 27.2392 17.7712ZM22.4886 17.8097C22.5758 17.9445 22.7065 18.599 22.7937 19.2535C22.8954 19.908 23.0843 20.9283 23.2441 21.5058C23.3894 22.1026 23.491 22.5838 23.4475 22.5838C22.939 22.5838 21.6024 20.8513 21.2538 19.754C21.0213 18.984 21.1085 18.06 21.4717 17.7712C21.8203 17.521 22.3143 17.5402 22.4886 17.8097ZM29.2586 20.447C29.4475 20.6973 29.5056 20.9668 29.4329 21.2941C29.3167 21.9101 28.14 22.7186 27.094 22.9111L26.3676 23.0266L26.8325 22.3336C27.094 21.9293 27.4136 21.3326 27.5443 20.9861C27.6751 20.6588 27.8494 20.2545 27.9366 20.1198C28.14 19.7733 28.8954 19.9658 29.2586 20.447ZM25.5395 26.2415C25.8446 26.8382 25.8736 27.0692 25.8155 28.4553C25.7574 30.1493 25.4233 31.3236 24.4789 33.2679C24.1303 33.9994 23.8978 34.3074 23.8107 34.1919C23.3022 33.5182 23.0988 27.9162 23.5346 26.7997C24.1303 25.2982 24.9293 25.0672 25.5395 26.2415ZM22.0237 28.128C22.1109 28.205 22.2271 29.129 22.2852 30.1878C22.3433 31.2466 22.4741 32.6519 22.5758 33.3064C22.6775 33.9802 22.7501 34.5192 22.7065 34.5192C22.5032 34.5192 21.7913 33.8839 21.4136 33.3257C20.5274 32.0936 20.1642 30.4958 20.4838 29.2445C20.7308 28.2243 21.5007 27.666 22.0237 28.128ZM27.7187 29.5525C27.9366 29.8413 27.9511 30.9386 27.7332 31.4969C27.646 31.7279 27.4281 32.1321 27.2538 32.3824C26.9051 32.9021 25.4233 34.1919 25.3216 34.0764C25.2925 34.0187 25.4523 33.5567 25.6993 33.0369C25.9317 32.5171 26.2804 31.5931 26.4547 30.9578C26.6291 30.3226 26.847 29.6873 26.9196 29.5525C27.094 29.2638 27.4862 29.2445 27.7187 29.5525ZM45.0504 30.5343C45.3409 31.4006 44.7598 34.0187 43.9608 35.3855C43.7574 35.7512 43.7429 35.6742 43.7283 34.3844C43.7283 32.6519 43.9463 31.2081 44.324 30.5728C44.6872 29.9761 44.847 29.9568 45.0504 30.5343ZM20.6726 34.0379L21.7477 35.4817L21.2538 35.5972C19.7138 35.9822 18.4063 34.4229 19.1763 33.1139C19.3506 32.8251 19.5104 32.5941 19.554 32.5941C19.5831 32.5941 20.0915 33.2487 20.6726 34.0379ZM28.1835 33.9802C28.1835 34.5769 28.0528 34.7887 27.4717 35.1737C27.0068 35.501 25.4233 35.8475 25.4233 35.6165C25.4233 35.5587 25.801 35.2315 26.2659 34.9042C26.7162 34.5577 27.2538 34.1149 27.4426 33.9224C27.9075 33.4412 28.1835 33.4604 28.1835 33.9802ZM32.3385 36.4635C32.3821 37.2528 32.5564 39.4088 32.7162 41.2569C33.3119 47.9368 33.2392 52.5377 32.4111 58.6786C32.2513 59.8337 32.048 61.7972 31.9608 63.0292C31.7429 66.1093 31.7283 76.4854 31.9463 78.8532C32.048 79.912 32.1061 80.7975 32.077 80.836C31.9753 80.9515 30.7259 76.2159 30.1593 73.5785C28.5177 66.0516 28.3143 61.5085 29.2731 53.3847C29.7526 49.3614 29.9124 48.3026 30.8712 42.9894C31.307 40.6024 31.7283 38.0998 31.801 37.4068C31.8881 36.7137 32.0044 35.8667 32.048 35.501C32.1642 34.5769 32.2368 34.8272 32.3385 36.4635ZM43.3797 39.4281C43.7138 40.1018 43.5685 42.2002 43.0746 44.3177C42.8712 45.184 42.5806 46.5123 42.4354 47.2823L42.1593 48.6683L41.8978 47.5133C41.6944 46.6663 41.6218 45.7615 41.6218 44.0482C41.6218 41.9691 41.6654 41.6419 41.9995 40.6794C42.3773 39.6206 42.7695 38.9468 43.0019 38.9468C43.0746 38.9468 43.2489 39.1586 43.3797 39.4281ZM24.4935 40.0441C25.1182 41.7381 24.7986 45.9733 23.7961 49.3999L23.3458 50.9399L23.1279 50.4009C22.3288 48.3411 22.0528 44.2407 22.5758 41.9306C22.9245 40.3714 23.4475 39.3318 23.8833 39.3318C24.1303 39.3318 24.3046 39.5243 24.4935 40.0441ZM27.399 42.7007C27.9802 43.8942 27.1085 46.9743 25.554 49.2266C25.0601 49.9389 24.6387 50.4779 24.6097 50.4394C24.5806 50.4009 24.6823 49.9196 24.8421 49.3806C25.1618 48.2641 25.6266 45.569 25.7864 43.952C25.8446 43.3744 25.9898 42.7392 26.1206 42.5467C26.4547 42.0462 27.1085 42.1232 27.399 42.7007ZM21.1666 43.4899C21.2828 43.7017 21.3264 44.0675 21.2683 44.4332C21.123 45.5305 21.6024 48.9571 22.1545 50.7281C22.5032 51.8447 20.7598 49.8426 19.9027 48.1486C19.1327 46.6085 18.8131 45.2032 19.031 44.1637C19.1182 43.7402 19.2925 43.2974 19.4378 43.1819C19.801 42.8739 20.9341 43.0857 21.1666 43.4899ZM39.399 44.0867C39.617 44.3947 39.9802 45.1647 40.2126 45.8385C40.663 47.0898 41.3603 50.4394 41.215 50.6319C41.0843 50.7859 39.7622 49.4576 39.2102 48.6298C38.2078 47.109 37.7865 44.953 38.2949 43.9905C38.5855 43.4322 38.9487 43.4514 39.399 44.0867ZM47.0843 44.1445C47.6944 44.5872 47.2005 46.3583 46.169 47.4748C45.2247 48.4758 43.1472 50.3624 43.0746 50.2661C42.9584 50.1121 43.4233 48.1486 43.8155 47.0705C44.0334 46.4738 44.5564 45.5305 44.9632 44.9722C45.6024 44.106 45.7768 43.952 46.2562 43.952C46.5467 43.952 46.9245 44.0482 47.0843 44.1445ZM20.3821 50.7859L21.6605 52.4222L21.1811 52.4607C19.8446 52.5377 18.8276 52.1912 18.2756 51.4597C18.0576 51.1517 17.8688 50.7281 17.8688 50.4971C17.8688 49.9966 18.4789 49.1496 18.8421 49.1496C18.9874 49.1496 19.6848 49.8811 20.3821 50.7859ZM26.876 50.0929C26.876 50.8436 25.8446 52.0372 25.1763 52.0372C25.0019 52.0372 25.1908 51.6907 25.7864 50.8822C26.7162 49.6501 26.876 49.5154 26.876 50.0929ZM42.1012 54.559C42.3918 55.2713 42.2029 57.7353 41.6944 59.7952C41.0843 62.2785 40.4305 64.4538 40.2998 64.4153C39.9511 64.319 39.7477 62.7982 39.7477 60.3149C39.7477 58.0241 39.7768 57.5813 40.0819 56.5611C40.445 55.3483 41.4039 53.866 41.7235 54.0007C41.8252 54.0585 41.9995 54.2895 42.1012 54.559ZM38.1061 59.1021C38.3821 59.6604 38.5128 60.2572 38.6291 61.5662C38.7162 62.5095 38.8179 63.4913 38.876 63.7223C39.0213 64.4345 38.7453 64.242 38.1642 63.241C37.4814 62.0282 37.1908 61.0849 37.1472 59.9492C37.1182 59.1021 37.3361 58.3899 37.6266 58.3899C37.6848 58.3899 37.9027 58.7171 38.1061 59.1021ZM45.3264 58.8904C45.3264 59.4871 44.5855 60.8347 43.4233 62.3362C42.1158 64.0495 42.0576 63.9533 42.9438 61.5085C43.5685 59.7952 44.3966 58.5824 44.9342 58.5824C45.1957 58.5824 45.3264 58.6786 45.3264 58.8904ZM14.0625 63.2988C14.4693 63.7608 15.2102 65.6473 15.0504 65.8398C15.0068 65.8976 14.6872 65.7051 14.324 65.4356C13.6266 64.8965 12.9293 63.7415 12.9293 63.164C12.9293 62.6442 13.554 62.7212 14.0625 63.2988ZM44.8615 63.2603C44.9342 63.7223 44.1206 64.627 42.9293 65.4163L41.9124 66.1093L43.2199 64.473C43.9463 63.5683 44.6 62.856 44.6727 62.8945C44.7598 62.9137 44.8325 63.087 44.8615 63.2603ZM37.9608 65.0506C38.7453 66.2056 38.6581 66.3211 37.5104 65.6088C36.7404 65.1276 36.508 64.781 36.6678 64.2613C36.8131 63.7223 37.2634 63.9918 37.9608 65.0506ZM18.1157 68.9584C18.6533 70.4022 19.278 72.9433 19.1327 73.155C19.0019 73.3283 17.1569 70.7487 16.8664 69.9979C16.5322 69.0932 16.445 67.4761 16.7356 67.0911C17.0407 66.6868 17.4765 67.2644 18.1157 68.9584ZM21.123 68.9007C21.2973 69.5167 21.1956 70.8065 20.9051 71.615C20.5419 72.5968 20.4111 72.6545 20.2804 71.846C20.1061 70.691 20.1787 69.3049 20.4402 68.9392C20.7308 68.5157 21.0068 68.4964 21.123 68.9007ZM41.4329 71.4995C41.5782 71.7497 41.7671 72.5005 41.8542 73.1743C42.0867 74.9453 41.8542 76.2351 40.5613 80.0082C39.2828 83.7043 39.2683 83.7043 38.8615 80.6242C38.4693 77.5634 38.6726 73.8096 39.3409 72.1925C39.9511 70.691 40.8228 70.4022 41.4329 71.4995ZM17.9269 74.5603C18.2901 74.7528 18.5952 74.9838 18.5952 75.0223C18.5952 75.0801 18.3046 75.3496 17.9705 75.6191C17.1569 76.2351 16.1835 76.2736 15.6315 75.6961C15.1521 75.1956 15.1521 74.8298 15.6605 74.4833C16.2126 74.0791 17.1424 74.0983 17.9269 74.5603ZM21.8058 75.5806C22.1545 75.8886 22.4886 76.5239 22.968 77.7944C23.6363 79.5847 24.7986 83.7428 24.6678 83.8968C24.4935 84.1278 22.663 82.6648 21.9947 81.7985C20.9777 80.4317 20.4257 78.8724 20.3676 77.1399C20.2804 75.1763 20.7598 74.6566 21.8058 75.5806ZM37.3942 75.8309C37.5831 75.9271 37.6266 76.2929 37.6266 77.8137C37.6266 79.4115 37.8446 81.4328 38.1351 82.6648C38.2804 83.2423 37.9027 82.9151 37.2925 81.914C36.5806 80.7397 36.1593 79.1997 36.1303 77.6789C36.1012 76.6009 36.1448 76.4084 36.4499 76.0811C36.7986 75.6961 37.0165 75.6384 37.3942 75.8309ZM44.7598 76.4854C44.9342 76.6201 45.0358 76.8896 45.0358 77.2361C45.0358 77.8714 44.3385 79.3152 43.6702 80.1045C43.0746 80.7975 40.9826 82.53 40.8809 82.4145C40.8518 82.3568 41.215 81.2403 41.6944 79.9312C42.1739 78.6222 42.5661 77.4287 42.5661 77.3131C42.5661 76.9859 43.5685 76.3121 44.0625 76.2929C44.2949 76.2929 44.6 76.3891 44.7598 76.4854ZM25.7574 77.3517C26.2368 77.9677 26.2368 79.4692 25.7574 81.683L25.5395 82.7418L25.0455 80.913C24.4789 78.7762 24.4354 78.0639 24.8421 77.4864C25.1908 76.9859 25.4668 76.9474 25.7574 77.3517ZM50.1351 81.2788C50.6872 82.0103 50.7162 83.0306 50.1932 83.7043C49.554 84.5706 48.3918 84.1471 48.0867 82.9343C47.8833 82.1065 47.985 81.6253 48.4789 81.1055C49.0165 80.5472 49.6266 80.605 50.1351 81.2788ZM21.3555 82.9343C21.8494 83.5118 22.3724 84.0316 22.5322 84.0893C23.1714 84.3588 22.5322 84.8401 21.2102 85.0711C20.324 85.2251 19.3651 84.6669 18.9729 83.8006C18.4935 82.7033 18.9148 81.914 20.0044 81.8948C20.3676 81.8755 20.6581 82.1065 21.3555 82.9343ZM28.6339 85.7256C28.968 86.3224 29.1279 87.9972 28.9826 89.6527L28.8809 90.9233L28.1545 89.3447C27.7477 88.4592 27.3264 87.5159 27.1956 87.2464C26.5564 85.8411 27.9075 84.4166 28.6339 85.7256ZM44.3676 85.9566C44.876 86.9192 44.4257 88.0357 43.5395 88.0357C42.6823 88.0357 42.2174 86.8999 42.7259 86.0529C43.1182 85.3599 44.0334 85.3214 44.3676 85.9566ZM25.8736 87.4389C26.6145 88.4785 28.1835 92.0013 28.1835 92.6366C28.1835 92.7713 28.0383 92.8098 27.7913 92.7328C26.5128 92.3286 25.0746 90.7115 24.4063 88.9405C23.7526 87.2272 23.8252 86.3032 24.5952 86.3032C24.9584 86.3032 25.2199 86.5342 25.8736 87.4389ZM14.8325 89.5757C17.3748 94.1574 19.5104 97.3337 22.7792 101.473C26.6581 106.362 27.8785 108.133 30.1303 112.08C33.0794 117.239 34.9245 121.127 35.7526 123.899C36.2029 125.363 38.077 133.12 38.0189 133.197C37.9898 133.236 37.7865 132.639 37.554 131.888C36.6097 128.654 34.3143 123.11 32.8325 120.473C30.6242 116.565 28.8228 114.159 25.2053 110.347C21.922 106.863 20.8325 105.496 19.5395 103.224C18.261 100.972 16.6484 97.43 15.7477 94.8696C15.2247 93.3874 13.801 88.286 13.801 87.8817C13.801 87.7277 13.8155 87.7662 14.8325 89.5757ZM30.7986 88.517C31.0746 88.9597 30.8421 90.0763 30.3482 90.7885L29.8978 91.4045L29.985 90.3458C30.0286 89.7683 30.0722 89.056 30.0722 88.748C30.0722 88.1512 30.4935 88.0165 30.7986 88.517ZM24.4354 91.4045C24.8421 92.0013 25.4523 92.6943 25.801 92.9638C26.1496 93.2334 26.4402 93.5221 26.4402 93.6184C26.4402 93.8879 25.1036 94.0034 24.508 93.7916C23.738 93.5221 22.9535 92.4826 22.9535 91.7511C22.9535 91.1735 23.3022 90.3458 23.5492 90.3458C23.6363 90.3458 24.0286 90.827 24.4354 91.4045ZM52.445 92.8483C52.8809 93.4259 52.8518 94.8311 52.3724 95.4472C51.9656 96.0054 51.7622 96.0439 51.3264 95.6397C50.9196 95.2547 50.7598 94.1766 50.9923 93.4259C51.2973 92.4248 51.9366 92.1746 52.445 92.8483ZM26.6436 95.5627C25.6412 96.968 24.4063 97.1027 24.4063 95.7937C24.4063 95.3894 24.4789 95.3509 25.1036 95.3317C25.4814 95.3124 25.9898 95.2354 26.2223 95.1584C27.0213 94.8889 27.094 94.9466 26.6436 95.5627ZM56.7743 97.6032C55.4668 107.421 52.4015 117.816 48.4644 125.767C47.3748 127.942 46.5032 129.501 42.9293 135.488C42.3046 136.547 41.5201 137.952 41.2005 138.626L40.6194 139.839L40.4305 138.106C40.2417 136.451 40.2562 136.239 40.7501 132.177C41.4765 126.21 42.7259 120.819 44.0189 118.028C44.2804 117.47 44.8615 116.392 45.3264 115.66C45.7768 114.909 46.7937 113.138 47.5927 111.714C48.3918 110.289 50.3676 106.92 51.9802 104.245C53.5927 101.569 55.3797 98.508 55.9463 97.4492C56.5128 96.4097 56.9923 95.5434 57.0213 95.5434C57.0358 95.5434 56.9342 96.4674 56.7743 97.6032ZM31.6121 96.5059C32.5855 97.3145 33.2392 99.3935 33.5007 102.454L33.6024 103.686L32.7017 103.051C31.2199 101.992 30.0286 99.894 29.8397 97.969C29.7526 97.2182 29.7961 97.045 30.1157 96.6214C30.5661 96.0247 30.9729 95.9862 31.6121 96.5059ZM34.6775 97.5455C35.0552 97.9882 35.0843 98.1037 35.0843 99.5283C35.0843 100.356 34.9826 101.415 34.8809 101.896L34.6775 102.762L34.5467 101.896C34.2417 99.7015 34.0818 98.8738 33.8494 98.123C33.7041 97.6802 33.617 97.2567 33.6605 97.199C33.8494 96.9487 34.2852 97.1027 34.6775 97.5455ZM30.4644 102.435C31.0455 103.205 31.801 103.956 32.2949 104.283C33.0068 104.764 33.1085 104.88 32.8906 105.034C32.4547 105.361 31.1908 105.246 30.4644 104.822C29.2586 104.11 28.6339 103.263 28.6194 102.32C28.6194 101.896 29.0843 101.126 29.3458 101.126C29.4184 101.126 29.9269 101.704 30.4644 102.435ZM36.4644 101.665C36.4644 102.05 35.7235 103.686 35.4329 103.917C35.3167 104.033 35.2877 103.994 35.3458 103.802C35.3894 103.648 35.5782 103.032 35.7671 102.435C36.0867 101.357 36.4644 100.953 36.4644 101.665ZM38.1206 104.514C39.4281 112.253 39.6896 116.007 39.5443 124.419L39.4426 130.098L39.1811 127.884C38.8179 124.785 37.7138 117.566 37.1908 114.852C36.9438 113.6 36.3918 111.175 35.9559 109.442C35.5201 107.729 35.1569 106.227 35.1569 106.112C35.1569 106.016 35.5492 105.438 36.0431 104.841C36.9729 103.686 37.4814 102.628 37.4814 101.781C37.4814 101.492 37.5104 101.299 37.5395 101.338C37.5685 101.376 37.83 102.82 38.1206 104.514ZM31.7429 106.67L32.324 106.843L31.7283 107.094C31.278 107.267 31.0601 107.286 30.8131 107.113C30.3918 106.805 30.4063 106.285 30.8421 106.42C31.0165 106.478 31.4233 106.593 31.7429 106.67ZM24.0431 117.297C24.6242 118.163 23.7526 119.395 23.0116 118.74C22.6339 118.413 22.5322 117.547 22.8373 117.143C23.0988 116.796 23.7526 116.873 24.0431 117.297ZM19.1618 121.281C19.5831 121.763 19.7138 122.725 19.3942 123.129C18.8276 123.899 17.8688 123.206 17.8688 122.051C17.8688 121.705 17.9414 121.32 18.0431 121.185C18.2901 120.858 18.7986 120.896 19.1618 121.281ZM31.3797 124.612C32.0915 125.555 31.3651 127.268 30.5516 126.575C30.0431 126.152 30.1012 124.535 30.6242 124.361C31.0455 124.207 31.0891 124.227 31.3797 124.612ZM22.0092 128.943C22.4305 129.482 22.4596 129.925 22.14 130.541C21.8494 131.099 21.4281 131.08 20.9923 130.483C20.6 129.983 20.5128 129.078 20.8034 128.693C21.0794 128.327 21.6315 128.423 22.0092 128.943ZM28.1835 138.087C28.5322 138.549 28.5613 139.107 28.2417 139.512C27.9802 139.877 27.9656 139.877 27.5588 139.608C27.1375 139.3 27.0213 139.069 27.0213 138.434C27.0213 137.644 27.6896 137.433 28.1835 138.087Z" fill="#D7B26A"/>
<path d="M56.8914 39.1586C56.8478 39.4859 56.8042 40.0441 56.8042 40.3714C56.8042 40.6987 56.6734 41.2569 56.5136 41.6034C56.2376 42.181 56.0197 42.3735 55.2788 42.7007C55.0318 42.797 55.0754 42.874 55.5693 43.1627C56.2521 43.5862 56.7025 44.183 57.0802 45.2033L57.3417 45.9348L57.5306 44.953C57.734 43.7595 58.0826 43.1242 58.7073 42.7777L59.1722 42.5275L58.5766 42.2002C57.8647 41.7959 57.4579 41.0067 57.24 39.5821C57.1529 39.0239 57.0512 38.5619 57.0366 38.5619C57.0076 38.5619 56.9495 38.8314 56.8914 39.1586ZM57.487 42.2387C57.6178 42.412 57.5887 42.6237 57.4289 43.105C57.1964 43.721 57.1819 43.721 56.8768 43.413L56.5572 43.0857L56.8623 42.566C57.211 41.9692 57.2691 41.95 57.487 42.2387Z" fill="#D7B26A"/>
<path d="M3.13801 97.5069C3.09443 97.9689 3.03632 98.893 2.99274 99.5475C2.83293 101.877 2.10654 103.186 0.74092 103.629C0.33414 103.763 0 103.917 0 103.994C0 104.052 0.33414 104.283 0.755448 104.476C1.75787 104.938 3.05085 106.632 3.41404 107.96C3.55932 108.48 3.73366 109 3.77724 109.077C3.83535 109.173 3.99516 108.557 4.14044 107.729C4.27119 106.901 4.47458 105.996 4.5908 105.727C4.8523 105.034 5.53511 104.302 6.3632 103.802L7.046 103.378L6.45036 103.147C5.52058 102.762 4.98305 102.339 4.57627 101.627C4.11138 100.818 3.69007 99.2395 3.55932 97.7957C3.42857 96.5059 3.23971 96.3712 3.13801 97.5069ZM4.24213 103.917C4.08232 104.187 3.89346 104.668 3.84988 104.976C3.79177 105.303 3.73366 105.554 3.69007 105.554C3.66102 105.554 3.3414 105.284 2.97821 104.938L2.32446 104.322L2.76029 103.86C3.00726 103.609 3.29782 103.147 3.42857 102.82L3.66102 102.223L4.09685 102.82L4.54722 103.398L4.24213 103.917Z" fill="#D7B26A"/>
<path d="M62.1646 116.68C61.3946 117.335 60.9152 118.24 60.276 120.223L59.7966 121.724L59.4189 121.166C58.9249 120.454 58.5036 120.28 58.0097 120.608C57.138 121.166 56.8765 122.706 57.1525 125.613L57.2833 126.903L56.862 127.037C56.6295 127.114 56.2663 127.307 56.0484 127.461C55.6707 127.75 55.6416 127.73 55.0896 127.076C53.9128 125.67 52.7215 126.036 51.9515 128.019C51.7336 128.577 51.6465 128.654 51.0944 128.654C49.3656 128.654 48.4649 130.772 49.2348 133.024C49.6271 134.141 50.6295 135.527 51.4576 136.085C51.8353 136.335 52.1549 136.643 52.1549 136.74C52.1549 136.99 52.0097 136.99 51.4431 136.72C50.7893 136.412 49.8595 136.797 49.0896 137.664C48.5084 138.318 48.4358 138.357 47.3462 138.357C46.3583 138.376 46.184 138.434 45.8353 138.857C45.385 139.415 45.0218 140.262 44.891 141.071C44.8184 141.533 44.7022 141.668 44.1646 141.879C42.7554 142.418 42.2615 144.132 42.9733 145.922C43.2784 146.654 44.3244 147.693 45.385 148.271C45.9515 148.579 46.431 148.906 46.4455 149.002C46.4745 149.098 46.4019 149.329 46.3002 149.541C46.1114 149.868 46.0387 149.868 45.414 149.637C44.8329 149.426 44.6586 149.445 44.1065 149.714C43.3946 150.08 43.0314 150.542 42.5084 151.755L42.1453 152.602L41.2445 152.621C40.4164 152.641 40.3293 152.679 39.8644 153.334C39.2397 154.238 39.0508 155.259 39.1089 157.376C39.138 158.435 39.0944 159.128 38.9927 159.224C38.9201 159.301 38.7312 159.571 38.6005 159.84C37.8305 161.322 39.0508 163.787 40.8087 164.287C41.2591 164.422 41.6368 164.537 41.6658 164.557C41.6804 164.576 41.4479 166.058 41.1283 167.848C39.8499 175.048 39.4721 178.898 39.4576 184.577C39.4431 188.524 39.5738 190.372 39.8208 189.544C39.8789 189.313 40.0097 188.023 40.0968 186.656C40.5181 180.15 40.7215 177.82 41.0557 175.144C41.4479 172.045 42.6683 164.845 42.8571 164.595C42.9152 164.518 43.4092 164.537 43.9612 164.653C46.5181 165.211 48.1017 164.826 48.799 163.517C49.2058 162.766 49.2494 161.727 48.9007 161.226C48.6683 160.86 48.6683 160.803 49.0896 159.917C49.4382 159.224 49.5399 158.762 49.5399 158.069C49.5399 156.356 48.9443 155.509 47.5206 155.239C46.8523 155.105 46.8523 155.105 46.9249 154.45C47.0266 153.449 46.9976 152.313 46.8668 151.524C46.7651 150.908 46.7942 150.754 47.1283 150.311L47.506 149.811L49.569 149.945C51.4867 150.061 51.7191 150.042 52.4891 149.637C53.7966 148.983 54.3196 147.809 54 146.23C53.8547 145.479 53.8692 145.364 54.1888 144.786C54.9152 143.496 54.5375 141.899 53.3462 141.244C52.9104 140.994 52.8813 140.917 52.9685 140.243C53.0121 139.839 52.983 139.146 52.8959 138.703C52.6925 137.721 52.8668 137.125 53.3753 137.125C53.5496 137.125 54.0871 137.298 54.5666 137.529C55.8595 138.145 57.2542 138.126 58.2712 137.471C59.3462 136.759 59.7821 135.97 59.7821 134.68C59.7821 133.91 59.7094 133.582 59.4334 133.197L59.0847 132.716L59.4189 131.696C59.8111 130.502 59.8402 129.155 59.4915 128.289C59.3607 127.942 59.2736 127.634 59.3026 127.615C59.3317 127.576 59.7094 127.461 60.1598 127.326C61.1622 127.037 62.5859 126.152 62.9927 125.555C63.661 124.573 63.5593 123.514 62.7457 123.052C62.5133 122.937 62.3244 122.783 62.3244 122.744C62.3244 122.687 62.644 122.263 63.0508 121.782C63.8789 120.8 64.7796 118.952 64.8959 117.99C64.9685 117.412 64.9104 117.22 64.5327 116.719C63.937 115.93 63.0799 115.91 62.1646 116.68ZM63.7191 118.067C63.6029 118.914 62.8765 120.223 61.9467 121.281C60.7699 122.629 60.6973 122.667 60.9298 121.763C61.6416 119.087 62.5859 117.489 63.4721 117.489C63.7772 117.489 63.8063 117.547 63.7191 118.067ZM58.6925 122.282C58.7651 122.494 58.8377 122.918 58.8377 123.245C58.8377 123.899 58.431 125.382 58.2566 125.382C58.0532 125.382 57.9515 123.476 58.1114 122.687C58.2857 121.84 58.46 121.724 58.6925 122.282ZM62.2954 124.458C62.1646 124.977 59.7094 126.402 59.7094 125.978C59.7094 125.747 60 125.459 60.8862 124.804C61.6997 124.207 62.3971 124.034 62.2954 124.458ZM54.4358 128.154C54.7845 128.558 54.8135 128.674 54.6683 128.982C53.9854 130.291 53.6222 131.272 53.23 132.87C52.7796 134.68 52.7796 134.68 52.5327 134.218C51.8934 132.909 52.2566 129.521 53.2009 127.923C53.4334 127.557 54 127.653 54.4358 128.154ZM58.4019 128.654C59.0557 129.521 58.6344 131.446 57.5157 132.793C56.6586 133.813 53.8983 135.431 53.8983 134.911C53.8983 134.429 54.4213 132.273 54.7264 131.484C55.6852 128.962 57.5593 127.538 58.4019 128.654ZM51.0799 130.156C51.1525 130.233 51.2252 130.926 51.2252 131.734C51.2106 132.524 51.2542 133.467 51.3123 133.813L51.4285 134.429L51.0653 134.121C50.644 133.756 49.9758 132.062 49.9758 131.349C49.9758 130.791 50.2227 130.291 50.5569 130.137C50.862 129.983 50.9055 129.983 51.0799 130.156ZM58.6925 134.256C58.9394 134.853 58.6344 135.642 57.9806 136.124C57.5448 136.451 57.1816 136.547 56.3535 136.547C55.4092 136.547 54.7118 136.335 54.9152 136.104C54.9588 136.066 55.3946 135.835 55.8741 135.604C56.368 135.373 57.0944 134.872 57.4721 134.526C58.3147 133.756 58.4891 133.717 58.6925 134.256ZM51.6319 138.511C51.7772 138.761 51.8644 139.338 51.8644 139.916C51.8644 141.109 51.2252 142.649 50.0775 144.209C49.3656 145.191 48.2324 146.365 48 146.365C47.8692 146.365 48.0581 143.843 48.3051 142.361C48.7699 139.723 49.7724 138.106 50.9491 138.087C51.2687 138.087 51.4867 138.222 51.6319 138.511ZM47.6804 139.723C47.7239 139.781 47.6368 140.378 47.477 141.032C47.3317 141.687 47.1283 143.073 47.0266 144.093C46.9394 145.133 46.8087 145.98 46.7651 145.98C46.4891 145.98 45.9951 144.093 45.937 142.784C45.8644 141.225 46.0387 140.378 46.5472 139.916C46.8377 139.627 47.5206 139.531 47.6804 139.723ZM53.2881 142.746C53.9709 143.65 52.7506 145.325 50.9055 145.999L49.9322 146.365L50.8765 145.056C51.385 144.344 51.937 143.477 52.0823 143.131C52.3729 142.476 52.9394 142.284 53.2881 142.746ZM45.0944 144.555C45.2687 145.191 45.5738 146.057 45.7627 146.442L46.0968 147.173L45.7482 147.039C44.6876 146.615 43.7288 145.345 43.7288 144.363C43.7288 143.612 43.9758 143.246 44.4406 143.323C44.7167 143.362 44.8474 143.612 45.0944 144.555ZM53.0266 147.039C53.0266 147.674 52.6053 148.213 51.908 148.463C51.2833 148.694 49.6126 148.713 48.7409 148.521C48.0581 148.348 48.0145 148.367 50.3825 147.616C51.1961 147.347 52.0532 147.019 52.2712 146.865C52.8377 146.442 53.0266 146.5 53.0266 147.039ZM45.414 151.139C45.9661 151.62 46.0678 153.507 45.6174 155.066C45.4576 155.624 44.7893 157.145 44.1356 158.435C42.7409 161.168 42.7554 161.168 42.7264 157.8C42.6973 153.738 43.5254 150.985 44.7748 150.985C45.0363 150.985 45.3268 151.062 45.414 151.139ZM41.5932 153.969C41.753 154.065 41.7821 154.527 41.7239 156.529C41.6949 157.877 41.7239 159.571 41.8111 160.321C41.8983 161.053 41.9419 161.688 41.9128 161.746C41.7675 161.939 40.9394 160.668 40.6198 159.744C39.6029 156.895 40.213 153.276 41.5932 153.969ZM47.8983 156.779C48.3922 157.03 48.523 157.28 48.523 157.973C48.523 158.993 48.2905 159.359 46.8668 160.629C45.9806 161.399 45.4867 161.65 44.2663 161.881L43.5545 162.016L44.9201 159.301L46.2712 156.606L46.8813 156.587C47.2155 156.568 47.6658 156.664 47.8983 156.779ZM39.8789 160.803C39.937 161.014 40.2857 161.631 40.6779 162.15C41.4334 163.19 41.3172 163.402 40.3874 162.709C39.6174 162.131 39.0653 160.418 39.661 160.418C39.7336 160.418 39.8353 160.591 39.8789 160.803ZM48.0145 161.958C48.1743 162.304 47.9273 162.92 47.506 163.209C47.23 163.402 46.6489 163.498 45.7772 163.498C44.3244 163.498 43.9031 163.228 45.0653 163.055C45.4867 162.978 46.184 162.689 46.6344 162.381C47.506 161.765 47.8692 161.669 48.0145 161.958Z" fill="#D7B26A"/>
<path d="M17.8404 152.044C17.7968 152.14 17.7096 152.891 17.666 153.68C17.3609 158.242 16.7653 159.513 14.5425 160.245L13.9033 160.456L15.0655 161.188C16.7363 162.266 17.637 163.652 18.3779 166.289C18.4651 166.578 18.5377 166.405 18.683 165.519C19.2641 162.17 19.5401 161.592 21.0801 160.514L22.1406 159.782L21.3706 159.436C19.5401 158.647 18.6539 157.049 18.189 153.68C18.0438 152.679 17.8985 151.928 17.8404 152.044ZM18.9009 159.147C19.3513 159.705 19.4094 159.859 19.2496 160.033C19.0607 160.245 18.5958 161.419 18.3924 162.208C18.3198 162.497 18.2181 162.439 17.5498 161.765C17.1285 161.342 16.7217 160.995 16.6491 160.995C16.591 160.995 16.867 160.61 17.2593 160.129C17.666 159.648 18.0438 159.07 18.0873 158.878C18.2036 158.377 18.2471 158.377 18.9009 159.147Z" fill="#D7B26A"/>
</svg>
