<svg width="43" height="74" viewBox="0 0 43 74" fill="none" xmlns="http://www.w3.org/2000/svg">
<path d="M24.6969 8.62573C24.4928 10.7952 24.2206 15.1342 24.0165 18.2077C23.268 29.1455 19.866 35.2924 13.4701 37.3715C11.5649 38.0043 10 38.7274 10 39.089C10 39.3602 11.5649 40.445 13.5381 41.3489C18.233 43.5184 24.2887 51.4732 25.9897 57.7105C26.6701 60.1512 27.4866 62.5919 27.6907 62.9534C27.9629 63.4054 28.7113 60.5128 29.3918 56.6258C30.0041 52.7387 30.9567 48.4902 31.501 47.2246C32.7258 43.9704 35.9237 40.5353 39.8021 38.1851L43 36.1964L40.2103 35.1116C35.8557 33.3037 33.3381 31.315 31.433 27.9704C29.2557 24.1738 27.2825 16.7613 26.6701 9.98166C26.0577 3.92516 25.1732 3.29239 24.6969 8.62573ZM29.868 38.7274C29.1196 39.993 28.2351 42.2529 28.0309 43.6992C27.7588 45.2359 27.4866 46.4111 27.2825 46.4111C27.1464 46.4111 25.6495 45.1455 23.9485 43.5184L20.8866 40.6257L22.9278 38.4563C24.0845 37.2811 25.4454 35.1116 26.0577 33.5749L27.1464 30.7726L29.1876 33.5749L31.2969 36.2868L29.868 38.7274Z" fill="white"/>
<path fill-rule="evenodd" clip-rule="evenodd" d="M26.0729 6.04488C26.0556 5.97733 26.0384 5.91303 26.0211 5.85199C25.6999 4.71822 25.3678 4.70788 25.086 5.86975C25.071 5.93136 25.0562 5.99627 25.0416 6.06448C24.9131 6.66259 24.7961 7.51471 24.6969 8.62573C24.527 10.4312 24.31 13.7392 24.1243 16.5699C24.0869 17.1407 24.0507 17.692 24.0165 18.2077C23.268 29.1455 19.866 35.2924 13.4701 37.3715C11.5649 38.0043 10 38.7274 10 39.089C10 39.3602 11.5649 40.445 13.5381 41.3489C18.233 43.5184 24.2887 51.4732 25.9897 57.7105C26.4156 59.2383 26.8949 60.7661 27.2438 61.7839C27.281 61.8923 27.3167 61.9949 27.3507 62.0911C27.5074 62.5347 27.628 62.8423 27.6907 62.9534C27.7469 63.0467 27.8233 62.9976 27.9152 62.8267C27.9174 62.8226 27.9196 62.8185 27.9218 62.8143C28.0013 62.6629 28.092 62.4224 28.191 62.1058C28.2244 61.9989 28.2588 61.8832 28.2941 61.7594C28.6196 60.6151 29.0161 58.772 29.3918 56.6258C30.0041 52.7387 30.9567 48.4902 31.501 47.2246C32.7258 43.9704 35.9237 40.5354 39.8021 38.1851L43 36.1964L40.2103 35.1116C35.8557 33.3037 33.3381 31.315 31.433 27.9704C29.2557 24.1738 27.2825 16.7613 26.6701 9.98166C26.489 8.19016 26.284 6.87323 26.0729 6.04488ZM25.6746 10.077C26.2942 16.9287 28.2887 24.4969 30.5648 28.4667C32.6081 32.0531 35.3281 34.1674 39.8269 36.0352L39.8373 36.0395L40.7733 36.4035L39.2789 37.3328C35.286 39.7537 31.9053 43.3326 30.573 46.8516C30.26 47.5902 29.8724 49.046 29.4962 50.7233C29.1093 52.448 28.7146 54.4996 28.4053 56.4616C28.1718 57.795 27.9317 59.0012 27.708 59.9863C27.4629 59.2063 27.1993 58.3253 26.9537 57.4447C26.0591 54.1665 24.0463 50.5047 21.6823 47.3986C19.3308 44.309 16.5234 41.6268 13.9576 40.4411L13.9546 40.4398C13.0243 40.0136 12.1949 39.5478 11.6033 39.1623C12.1681 38.8998 12.9308 38.6044 13.7823 38.3215C20.7777 36.0459 24.2574 29.3357 25.0142 18.2759L25.0143 18.2739C25.0488 17.7549 25.0851 17.2012 25.1226 16.6287C25.2825 14.1927 25.4644 11.4192 25.6193 9.55222C25.638 9.72188 25.6564 9.89678 25.6746 10.077ZM30.7288 39.2365L30.731 39.2327L32.5021 36.2075L29.9867 32.9734L26.8771 28.7045L25.1288 33.2047C25.1283 33.206 25.1277 33.2073 25.1272 33.2086C24.5576 34.636 23.267 36.6861 22.2152 37.7548L22.2073 37.7628L19.4744 40.6673L23.2572 44.241C23.258 44.2418 23.2588 44.2425 23.2595 44.2432C24.1203 45.0665 24.9318 45.8008 25.55 46.3328C25.858 46.598 26.1257 46.8195 26.3311 46.9786C26.4318 47.0566 26.5311 47.1301 26.6193 47.1882C26.6617 47.2162 26.7199 47.2529 26.7851 47.2863C26.8175 47.3029 26.8681 47.3273 26.9308 47.3496C26.9783 47.3665 27.1099 47.4111 27.2825 47.4111C27.7944 47.4111 28.0803 47.0623 28.1494 46.974C28.2533 46.8414 28.3214 46.7006 28.364 46.6029C28.4538 46.3968 28.531 46.1422 28.5984 45.8854C28.7367 45.3586 28.8785 44.6479 29.0156 43.8736L29.0187 43.8563L29.0211 43.8389C29.2027 42.552 30.0307 40.4169 30.7288 39.2365ZM23.9485 43.5184L20.8866 40.6257L22.9278 38.4563C24.0845 37.2811 25.4454 35.1116 26.0577 33.5749L27.1464 30.7726L29.1876 33.5749L31.2969 36.2868L29.868 38.7274C29.1196 39.993 28.2351 42.2529 28.0309 43.6992C27.9082 44.3921 27.7855 45.0114 27.669 45.4827C27.6683 45.4857 27.6675 45.4887 27.6668 45.4918C27.5258 46.0604 27.394 46.4111 27.2825 46.4111C27.1464 46.4111 25.6495 45.1455 23.9485 43.5184Z" fill="white"/>
<path d="M11.7897 52.4378C11.7093 53.2981 11.6021 55.0187 11.5216 56.2375C11.2268 60.5749 9.8866 63.0125 7.36701 63.837C6.61649 64.0879 6 64.3747 6 64.5181C6 64.6256 6.61649 65.0558 7.39381 65.4142C9.2433 66.2745 11.6289 69.429 12.299 71.9024C12.567 72.8703 12.8887 73.8382 12.9691 73.9815C13.0763 74.1608 13.3711 73.0137 13.6392 71.4723C13.8804 69.9309 14.2557 68.2461 14.4701 67.7442C14.9526 66.4538 16.2124 65.0916 17.7402 64.1596L19 63.371L17.901 62.9408C16.1856 62.2239 15.1938 61.4353 14.4433 60.1089C13.5856 58.6034 12.8082 55.664 12.567 52.9755C12.3258 50.5738 11.9773 50.3228 11.7897 52.4378ZM13.8268 64.3747C13.532 64.8765 13.1835 65.7727 13.1031 66.3462C12.9959 66.9556 12.8887 67.4216 12.8082 67.4216C12.7546 67.4216 12.1649 66.9198 11.4948 66.2745L10.2887 65.1274L11.0928 64.2671C11.5485 63.8011 12.0845 62.9408 12.3258 62.3314L12.7546 61.2202L13.5588 62.3314L14.3897 63.4068L13.8268 64.3747Z" fill="white"/>
<path fill-rule="evenodd" clip-rule="evenodd" d="M12.4373 51.9459C12.4638 52.1102 12.4897 52.2957 12.5148 52.5021C12.5149 52.5033 12.5151 52.5044 12.5152 52.5056C12.5329 52.6518 12.5502 52.8084 12.567 52.9755C12.5958 53.2967 12.6323 53.6214 12.6756 53.9469C12.9951 56.3458 13.688 58.7832 14.4433 60.1089C15.1852 61.42 16.1628 62.2057 17.8421 62.916C17.8616 62.9243 17.8813 62.9326 17.901 62.9408L19 63.371L17.7402 64.1596C16.2124 65.0916 14.9526 66.4538 14.4701 67.7442C14.2557 68.2461 13.8804 69.9309 13.6392 71.4723C13.5843 71.7876 13.5284 72.0864 13.4731 72.3608C13.4218 72.6158 13.3711 72.8496 13.3224 73.0559C13.2214 73.4845 13.1293 73.7942 13.0596 73.9274C13.0587 73.929 13.0579 73.9306 13.057 73.9322C13.021 73.9992 12.9911 74.0183 12.9691 73.9815C12.9226 73.8986 12.7953 73.5397 12.6444 73.0645C12.58 72.8618 12.5114 72.6381 12.4429 72.4055C12.3943 72.2408 12.3458 72.0716 12.299 71.9024C11.6289 69.429 9.2433 66.2745 7.39381 65.4142C7.1901 65.3203 6.99744 65.2214 6.82402 65.1247C6.81255 65.1183 6.80117 65.1119 6.78987 65.1056C6.32013 64.8406 6 64.5956 6 64.5181C6 64.4089 6.35763 64.2165 6.85972 64.0201C6.87454 64.0143 6.88948 64.0085 6.90454 64.0027C7.04922 63.947 7.20499 63.8911 7.36701 63.837C9.8866 63.0125 11.2268 60.5749 11.5216 56.2375C11.5351 56.033 11.5494 55.8144 11.5641 55.5881C11.5982 55.0658 11.6349 54.5025 11.6711 53.9774C11.6937 53.65 11.7162 53.3374 11.7377 53.0588C11.7379 53.0558 11.7382 53.0528 11.7384 53.0498C11.7563 52.8184 11.7735 52.6107 11.7897 52.4378C11.8054 52.261 11.8222 52.1007 11.84 51.9568C11.999 50.6697 12.2355 50.6961 12.4373 51.9459ZM12.3975 57.5742C12.7314 58.7686 13.1361 59.8341 13.5737 60.6027C13.6186 60.682 13.6643 60.7598 13.7109 60.8359L12.4849 59.1417L11.3945 61.967C11.1955 62.4677 10.7291 63.2087 10.3778 63.568L10.3699 63.5761L8.88249 65.1674C8.61646 64.9647 8.34785 64.787 8.08005 64.6412C10.6308 63.616 11.9453 61.1494 12.3975 57.5742ZM10.4267 66.6387L10.8034 66.997C11.1487 67.3294 11.4758 67.6274 11.7279 67.8458C11.8529 67.9542 11.9672 68.0496 12.0599 68.1218C12.1042 68.1564 12.1572 68.1963 12.2107 68.2319C12.2358 68.2485 12.2795 68.2767 12.3334 68.3045C12.3601 68.3183 12.406 68.3407 12.4647 68.3617C12.5082 68.3772 12.6371 68.4216 12.8082 68.4216C12.9834 68.4216 13.1303 68.3796 13.2495 68.3223C13.1947 68.5375 13.1407 68.7674 13.0886 69.0009C12.9948 69.4218 12.9001 69.89 12.8125 70.369C12.3757 69.3598 11.7619 68.3438 11.0863 67.4503C10.8767 67.173 10.6558 66.9006 10.4267 66.6387ZM14.158 66.1848C14.2717 65.763 14.4953 65.211 14.689 64.8812L14.6912 64.8774L15.5924 63.3279L14.3597 61.7324L14.3577 61.7297C15.0083 62.4884 15.8058 63.0592 16.8298 63.5555C15.7649 64.2712 14.8113 65.1918 14.158 66.1848ZM13.5588 62.3314L14.3897 63.4068L13.8268 64.3747C13.532 64.8765 13.1835 65.7727 13.1031 66.3462C13.1008 66.3592 13.0985 66.372 13.0963 66.3848C13.0917 66.4103 13.0872 66.4355 13.0827 66.4605C12.9824 67.0129 12.8836 67.4216 12.8082 67.4216C12.7702 67.4216 12.462 67.1687 12.0466 66.7912C12.0326 66.7784 12.0185 66.7655 12.0042 66.7525C11.8459 66.6079 11.6732 66.4463 11.4948 66.2745L10.2887 65.1274L11.0928 64.2671C11.5481 63.8014 12.0838 62.942 12.3253 62.3326C12.3255 62.3322 12.3256 62.3318 12.3258 62.3314L12.7546 61.2202L13.5588 62.3314Z" fill="white"/>
<path d="M8.46185 2.12543C8.34433 3.3972 8.18763 5.94074 8.0701 7.74242C7.63917 14.1543 5.68041 17.7576 1.99794 18.9764C0.901031 19.3473 0 19.7713 0 19.9832C0 20.1422 0.901031 20.7781 2.03711 21.308C4.74021 22.5798 8.2268 27.2429 9.20618 30.8993C9.59794 32.33 10.068 33.7607 10.1856 33.9727C10.3423 34.2377 10.7732 32.542 11.1649 30.2634C11.5175 27.9848 12.066 25.4942 12.3794 24.7524C13.0845 22.8447 14.9258 20.8311 17.1588 19.4533L19 18.2875L17.3938 17.6516C14.8866 16.5918 13.4371 15.426 12.3402 13.4654C11.0866 11.2398 9.95051 6.89457 9.59794 2.92028C9.24536 -0.630078 8.73608 -1.00101 8.46185 2.12543ZM11.4392 19.7713C11.0082 20.5131 10.499 21.8379 10.3814 22.6857C10.2247 23.5866 10.068 24.2754 9.95052 24.2754C9.87217 24.2754 9.01031 23.5336 8.03093 22.5798L6.26804 20.8841L7.4433 19.6123C8.10928 18.9234 8.89278 17.6516 9.24536 16.7508L9.87216 15.1081L11.0474 16.7508L12.2619 18.3405L11.4392 19.7713Z" fill="white"/>
<path fill-rule="evenodd" clip-rule="evenodd" d="M9.48476 1.92728C9.43265 1.53106 9.37835 1.19507 9.32288 0.920094C9.0769 -0.299156 8.80776 -0.31855 8.60313 0.933048C8.55806 1.20866 8.51613 1.54588 8.47826 1.94551C8.4727 2.00414 8.46723 2.06411 8.46185 2.12543C8.36405 3.18379 8.23911 5.12294 8.1322 6.7823C8.11065 7.11689 8.08982 7.4401 8.0701 7.74242C7.63917 14.1543 5.68041 17.7576 1.99794 18.9764C1.55802 19.1252 1.1496 19.2825 0.818183 19.4312C0.817436 19.4315 0.81669 19.4318 0.815944 19.4322C0.322257 19.6539 0 19.8565 0 19.9832C0 20.1422 0.901031 20.7781 2.03711 21.308C4.74021 22.5798 8.2268 27.2429 9.20618 30.8993C9.36359 31.4741 9.53364 32.049 9.68839 32.5448C9.74721 32.7332 9.80381 32.9103 9.85668 33.0715C10.0109 33.542 10.1332 33.8783 10.1856 33.9727C10.2175 34.0267 10.2608 33.9993 10.3129 33.9021C10.3141 33.8999 10.3153 33.8976 10.3165 33.8953C10.3916 33.7515 10.4845 33.4652 10.5875 33.0705C10.6316 32.9013 10.6776 32.7122 10.7247 32.5059C10.866 31.8884 11.0182 31.1168 11.1649 30.2634C11.5175 27.9848 12.066 25.4942 12.3794 24.7524C13.0845 22.8447 14.9258 20.8311 17.1588 19.4533L19 18.2875L17.3938 17.6516C14.8866 16.5918 13.4371 15.426 12.3402 13.4654C11.0866 11.2398 9.95051 6.89457 9.59794 2.92028C9.56172 2.55563 9.52386 2.22451 9.48476 1.92728ZM9.13549 6.76359C9.68419 9.60405 10.5295 12.2878 11.4683 13.955C12.6704 16.103 14.2698 17.3869 16.811 18.4899L16.6287 18.6054C14.2789 20.0564 12.2584 22.2157 11.4488 24.3856C11.253 24.8599 11.0246 25.7438 10.8103 26.7164C10.5859 27.7349 10.3573 28.9446 10.178 30.1021C10.158 30.2183 10.138 30.3327 10.1179 30.4451C9.56219 28.5112 8.40638 26.3997 7.06899 24.6107C5.70024 22.7796 4.03369 21.1422 2.46284 20.4031L2.45983 20.4017C2.24277 20.3005 2.03603 20.1955 1.8454 20.0919C1.99362 20.0364 2.15104 19.9803 2.31531 19.9247C6.59917 18.5052 8.62938 14.3336 9.06785 7.80947L9.06798 7.80751C9.08791 7.50195 9.1089 7.17634 9.13056 6.84012C9.1322 6.81466 9.13385 6.78915 9.13549 6.76359ZM12.3061 20.2697L13.4604 18.2622L11.8516 16.1562L9.6018 13.0116L8.31267 16.3901C8.00149 17.183 7.28671 18.3355 6.72434 18.9172L6.71652 18.9253L4.86836 20.9253L7.33544 23.2983C7.83532 23.7851 8.30766 24.2202 8.66952 24.5374C8.84943 24.695 9.00968 24.8302 9.13613 24.9299C9.19738 24.9782 9.26422 25.0289 9.32817 25.0719C9.35841 25.0922 9.40657 25.1234 9.46406 25.1534C9.49256 25.1683 9.54018 25.1917 9.60054 25.2136C9.64544 25.2298 9.77671 25.2754 9.95052 25.2754C10.4595 25.2754 10.735 24.924 10.7891 24.8537C10.8798 24.7356 10.935 24.6166 10.9647 24.5472C11.0289 24.3974 11.0794 24.2242 11.1196 24.0681C11.2034 23.743 11.2873 23.3134 11.3666 22.8571L11.3696 22.8401L11.372 22.823C11.4678 22.1319 11.9223 20.9305 12.3039 20.2735L12.3061 20.2697ZM9.24536 16.7508L9.87216 15.1081L11.0474 16.7508L12.2619 18.3405L11.4392 19.7713C11.0082 20.5131 10.499 21.8379 10.3814 22.6857C10.3448 22.8962 10.3082 23.0952 10.2721 23.2764C10.2688 23.2932 10.2654 23.3098 10.2621 23.3262C10.1473 23.8934 10.038 24.2754 9.95052 24.2754C9.90618 24.2754 9.61099 24.0379 9.1856 23.6589C9.17844 23.6525 9.17123 23.6461 9.16399 23.6396C8.84149 23.3516 8.4468 22.9848 8.03093 22.5798L6.26804 20.8841L7.4433 19.6123C8.10928 18.9234 8.89278 17.6516 9.24536 16.7508Z" fill="white"/>
</svg>
